<?xml version="1.0" encoding="UTF-8"?>
<svg version="1.1" xmlns="http://www.w3.org/2000/svg" width="500" height="500">
<path d="M0 0 C3.48125659 3.06181703 6.88283906 6.19925841 10.23046875 9.40625 C12.91942023 11.99842438 12.91942023 11.99842438 15.6875 14.1171875 C17.80871691 15.84425938 19.26330011 17.39218492 20.8125 19.625 C21.23144531 20.21539062 21.65039062 20.80578125 22.08203125 21.4140625 C23 23 23 23 23 25 C23.66 25 24.32 25 25 25 C29 30.41176471 29 30.41176471 29 33 C29.66 33 30.32 33 31 33 C43.37254543 48.90522558 50.69970102 70.51935364 55 90 C55.18546387 90.83313721 55.37092773 91.66627441 55.56201172 92.5246582 C57.2548526 101.2070745 57.37229564 109.82065298 57.37060547 118.6340332 C57.37496338 121.16622019 57.4113598 123.69663674 57.44921875 126.22851562 C57.52704738 137.37592345 56.07642495 147.29786608 53 158 C52.70158203 159.05421143 52.40316406 160.10842285 52.09570312 161.19458008 C51.29352269 163.91636341 50.4437708 166.61539206 49.5625 169.3125 C49.10701782 170.72281494 49.10701782 170.72281494 48.64233398 172.16162109 C46.78579226 177.82792581 44.77733063 183.36872854 42.37109375 188.828125 C41.24707579 191.42841727 40.18997792 194.03377417 39.16015625 196.671875 C35.68591844 205.56768332 32.06142948 214.18656412 27.66796875 222.671875 C25.3118241 227.37312849 23.28753937 232.1881934 21.26171875 237.0390625 C20.25030598 239.41259464 19.18866761 241.71195437 18 244 C17.34 244 16.68 244 16 244 C15.73703125 244.85078125 15.4740625 245.7015625 15.203125 246.578125 C13.95936444 250.11557386 12.44336091 253.41414038 10.75 256.75 C10.4092041 257.42482422 10.0684082 258.09964844 9.71728516 258.79492188 C0.82383949 276.25171552 -8.66601471 293.358873 -18.61328125 310.234375 C-21.90127004 315.81296781 -25.11419222 321.43214568 -28.3125 327.0625 C-32.02847428 333.59274267 -35.79257621 340.08627888 -39.69287109 346.50830078 C-41.7402676 349.88196876 -43.74300243 353.2761971 -45.70703125 356.69921875 C-46.16190918 357.48780273 -46.61678711 358.27638672 -47.08544922 359.08886719 C-47.97206666 360.62900077 -48.85282066 362.17252793 -49.72705078 363.71972656 C-50.76278941 365.51288311 -51.87451227 367.26177036 -53 369 C-53.66 369 -54.32 369 -55 369 C-55.12310547 369.59095459 -55.24621094 370.18190918 -55.37304688 370.79077148 C-56.36200527 374.27561748 -58.50120701 377.08287515 -60.5 380.0625 C-63.7096379 384.78829473 -63.7096379 384.78829473 -66 390 C-66.66 390 -67.32 390 -68 390 C-68.26683594 390.71800781 -68.53367187 391.43601562 -68.80859375 392.17578125 C-70.01458136 395.034565 -71.43698539 397.54753648 -73.0625 400.1875 C-75.13105765 403.5385079 -75.13105765 403.5385079 -77 407 C-77.66 407 -78.32 407 -79 407 C-79 407.99 -79 408.98 -79 410 C-79.66 410 -80.32 410 -81 410 C-81.66 411.98 -82.32 413.96 -83 416 C-83.66 416 -84.32 416 -85 416 C-85.26498291 416.72018311 -85.52996582 417.44036621 -85.80297852 418.18237305 C-87.89020169 423.09541459 -90.9922486 427.37824385 -93.9375 431.8125 C-94.57107422 432.79154297 -95.20464844 433.77058594 -95.85742188 434.77929688 C-96.47037109 435.70419922 -97.08332031 436.62910156 -97.71484375 437.58203125 C-98.27292725 438.42999268 -98.83101074 439.2779541 -99.40600586 440.15161133 C-99.93202393 440.76157959 -100.45804199 441.37154785 -101 442 C-101.99 442 -102.98 442 -104 442 C-108 436.85714286 -108 436.85714286 -108 433 C-108.66 433 -109.32 433 -110 433 C-112 430 -112 430 -112 427 C-112.66 427 -113.32 427 -114 427 C-115.4646105 424.86280013 -116.80357054 422.72479013 -118.125 420.5 C-123.40004663 411.79911153 -129.06656357 403.38127934 -134.81689453 394.98828125 C-135.48833496 393.99570312 -136.15977539 393.003125 -136.8515625 391.98046875 C-137.45822754 391.09254639 -138.06489258 390.20462402 -138.68994141 389.28979492 C-140 387 -140 387 -140 384 C-140.66 384 -141.32 384 -142 384 C-142.83848804 382.54462432 -143.67063934 381.08559627 -144.5 379.625 C-144.9640625 378.81289063 -145.428125 378.00078125 -145.90625 377.1640625 C-147 375 -147 375 -147 373 C-147.66 373 -148.32 373 -149 373 C-149.29132813 372.46632813 -149.58265625 371.93265625 -149.8828125 371.3828125 C-150.29273438 370.63773437 -150.70265625 369.89265625 -151.125 369.125 C-151.51945312 368.40570313 -151.91390625 367.68640625 -152.3203125 366.9453125 C-153.76084273 364.4193595 -155.24061319 361.92731972 -156.7421875 359.4375 C-160.23958589 353.62784313 -163.62209812 347.75470501 -167 341.875 C-171.40000325 334.22662479 -175.81830374 326.59017265 -180.28710938 318.98168945 C-192.91299228 297.46406091 -204.92873993 275.64667831 -216.25732422 253.41796875 C-217.42679675 251.12424286 -218.60035557 248.83259615 -219.77783203 246.54296875 C-228.62213158 229.3324399 -236.67932152 211.91270783 -244 194 C-244.58370361 192.58364258 -244.58370361 192.58364258 -245.17919922 191.13867188 C-254.52037724 168.29452819 -261.44182207 145.03477115 -261.4375 120.25 C-261.43889984 119.4808728 -261.44029968 118.71174561 -261.44174194 117.91931152 C-261.42162268 104.42506133 -259.84840297 91.97914188 -256 79 C-255.71165283 77.95972656 -255.71165283 77.95972656 -255.41748047 76.8984375 C-244.33484545 37.1237617 -214.77852953 3.04735671 -179.29980469 -17.17333984 C-122.65990906 -48.22098801 -49.42561323 -42.30714075 0 0 Z " fill="#FE1700" transform="translate(352,49)"/>
<path d="M0 0 C1.27230469 0.41765625 1.27230469 0.41765625 2.5703125 0.84375 C20.28845533 7.28671103 31.80733584 19.91451156 39.8125 36.625 C46.30147959 50.66600021 46.10304335 68.37763179 41.05371094 82.80151367 C40.39929172 84.54595271 39.70141091 86.27391923 39 88 C38.68933594 88.79535156 38.37867188 89.59070313 38.05859375 90.41015625 C30.90406147 106.54795777 16.15692677 116.65069644 0.38671875 123.0625 C-4.32778192 124.75613755 -8.99417037 125.71491088 -14 126 C-15.00675781 126.06445312 -16.01351562 126.12890625 -17.05078125 126.1953125 C-34.85996873 126.80038116 -49.97088117 121.18075938 -63.4375 109.5625 C-75.85053387 97.63704847 -83.91084916 82.41868092 -84.30126953 65.01733398 C-84.38875323 45.40767173 -78.88194687 29.20432527 -64.984375 14.9296875 C-47.48758967 -1.62302668 -22.89484217 -7.69797592 0 0 Z " fill="#FDFCFC" transform="translate(270,105)"/>
<path d="M0 0 C3.48125659 3.06181703 6.88283906 6.19925841 10.23046875 9.40625 C12.91942023 11.99842438 12.91942023 11.99842438 15.6875 14.1171875 C17.80871691 15.84425938 19.26330011 17.39218492 20.8125 19.625 C21.23144531 20.21539062 21.65039062 20.80578125 22.08203125 21.4140625 C23 23 23 23 23 25 C23.66 25 24.32 25 25 25 C29 30.41176471 29 30.41176471 29 33 C29.66 33 30.32 33 31 33 C43.37254543 48.90522558 50.69970102 70.51935364 55 90 C55.18546387 90.83313721 55.37092773 91.66627441 55.56201172 92.5246582 C57.2548526 101.2070745 57.37229564 109.82065298 57.37060547 118.6340332 C57.37496338 121.16622019 57.4113598 123.69663674 57.44921875 126.22851562 C57.52704738 137.37592345 56.07642495 147.29786608 53 158 C52.70158203 159.05421143 52.40316406 160.10842285 52.09570312 161.19458008 C51.29352269 163.91636341 50.4437708 166.61539206 49.5625 169.3125 C49.10701782 170.72281494 49.10701782 170.72281494 48.64233398 172.16162109 C46.78579226 177.82792581 44.77733063 183.36872854 42.37109375 188.828125 C41.24707579 191.42841727 40.18997792 194.03377417 39.16015625 196.671875 C35.68591844 205.56768332 32.06142948 214.18656412 27.66796875 222.671875 C25.3118241 227.37312849 23.28753937 232.1881934 21.26171875 237.0390625 C20.25030598 239.41259464 19.18866761 241.71195437 18 244 C17.34 244 16.68 244 16 244 C15.73703125 244.85078125 15.4740625 245.7015625 15.203125 246.578125 C13.95936444 250.11557386 12.44336091 253.41414038 10.75 256.75 C10.4092041 257.42482422 10.0684082 258.09964844 9.71728516 258.79492188 C0.82383949 276.25171552 -8.66601471 293.358873 -18.61328125 310.234375 C-21.90127004 315.81296781 -25.11419222 321.43214568 -28.3125 327.0625 C-32.02847428 333.59274267 -35.79257621 340.08627888 -39.69287109 346.50830078 C-41.7402676 349.88196876 -43.74300243 353.2761971 -45.70703125 356.69921875 C-46.16190918 357.48780273 -46.61678711 358.27638672 -47.08544922 359.08886719 C-47.97206666 360.62900077 -48.85282066 362.17252793 -49.72705078 363.71972656 C-50.76278941 365.51288311 -51.87451227 367.26177036 -53 369 C-53.66 369 -54.32 369 -55 369 C-55.12310547 369.59095459 -55.24621094 370.18190918 -55.37304688 370.79077148 C-56.36200527 374.27561748 -58.50120701 377.08287515 -60.5 380.0625 C-63.7096379 384.78829473 -63.7096379 384.78829473 -66 390 C-66.66 390 -67.32 390 -68 390 C-68.26683594 390.71800781 -68.53367187 391.43601562 -68.80859375 392.17578125 C-70.01458136 395.034565 -71.43698539 397.54753648 -73.0625 400.1875 C-75.13105765 403.5385079 -75.13105765 403.5385079 -77 407 C-77.66 407 -78.32 407 -79 407 C-79 407.99 -79 408.98 -79 410 C-79.66 410 -80.32 410 -81 410 C-81.66 411.98 -82.32 413.96 -83 416 C-83.66 416 -84.32 416 -85 416 C-85.26498291 416.72018311 -85.52996582 417.44036621 -85.80297852 418.18237305 C-87.89020169 423.09541459 -90.9922486 427.37824385 -93.9375 431.8125 C-94.57107422 432.79154297 -95.20464844 433.77058594 -95.85742188 434.77929688 C-96.47037109 435.70419922 -97.08332031 436.62910156 -97.71484375 437.58203125 C-98.27292725 438.42999268 -98.83101074 439.2779541 -99.40600586 440.15161133 C-99.93202393 440.76157959 -100.45804199 441.37154785 -101 442 C-101.99 442 -102.98 442 -104 442 C-108 436.85714286 -108 436.85714286 -108 433 C-108.66 433 -109.32 433 -110 433 C-112 430 -112 430 -112 427 C-112.66 427 -113.32 427 -114 427 C-115.4646105 424.86280013 -116.80357054 422.72479013 -118.125 420.5 C-123.40004663 411.79911153 -129.06656357 403.38127934 -134.81689453 394.98828125 C-135.48833496 393.99570312 -136.15977539 393.003125 -136.8515625 391.98046875 C-137.45822754 391.09254639 -138.06489258 390.20462402 -138.68994141 389.28979492 C-140 387 -140 387 -140 384 C-140.66 384 -141.32 384 -142 384 C-142.83848804 382.54462432 -143.67063934 381.08559627 -144.5 379.625 C-144.9640625 378.81289063 -145.428125 378.00078125 -145.90625 377.1640625 C-147 375 -147 375 -147 373 C-147.66 373 -148.32 373 -149 373 C-149.29132813 372.46632813 -149.58265625 371.93265625 -149.8828125 371.3828125 C-150.29273438 370.63773437 -150.70265625 369.89265625 -151.125 369.125 C-151.51945312 368.40570313 -151.91390625 367.68640625 -152.3203125 366.9453125 C-153.76084273 364.4193595 -155.24061319 361.92731972 -156.7421875 359.4375 C-160.23958589 353.62784313 -163.62209812 347.75470501 -167 341.875 C-171.40000325 334.22662479 -175.81830374 326.59017265 -180.28710938 318.98168945 C-192.91299228 297.46406091 -204.92873993 275.64667831 -216.25732422 253.41796875 C-217.42679675 251.12424286 -218.60035557 248.83259615 -219.77783203 246.54296875 C-228.62213158 229.3324399 -236.67932152 211.91270783 -244 194 C-244.58370361 192.58364258 -244.58370361 192.58364258 -245.17919922 191.13867188 C-254.52037724 168.29452819 -261.44182207 145.03477115 -261.4375 120.25 C-261.43889984 119.4808728 -261.44029968 118.71174561 -261.44174194 117.91931152 C-261.42162268 104.42506133 -259.84840297 91.97914188 -256 79 C-255.71165283 77.95972656 -255.71165283 77.95972656 -255.41748047 76.8984375 C-244.33484545 37.1237617 -214.77852953 3.04735671 -179.29980469 -17.17333984 C-122.65990906 -48.22098801 -49.42561323 -42.30714075 0 0 Z M-169 -15 C-170.73636719 -14.13955078 -170.73636719 -14.13955078 -172.5078125 -13.26171875 C-186.48973032 -6.17909596 -198.34848515 2.7411475 -209.58056641 13.63623047 C-210.81673872 14.82392543 -212.08367253 15.97943869 -213.35546875 17.12890625 C-234.88643184 37.16956588 -248.22310216 66.5715817 -254 95 C-254.22429687 96.05058594 -254.44859375 97.10117188 -254.6796875 98.18359375 C-266.44632259 164.02839424 -221.42223471 236.96121999 -189.56787109 292.26269531 C-187.97214126 295.04863784 -186.39886457 297.84615153 -184.83203125 300.6484375 C-169.66529714 327.75819311 -153.31847893 354.17233485 -136.66015625 380.38623047 C-135.49197054 382.22543579 -134.32545494 384.06570243 -133.16015625 385.90673828 C-125.8024657 397.52618974 -118.36797094 409.09065243 -110.6875 420.5 C-110.05932373 421.44399658 -109.43114746 422.38799316 -108.78393555 423.3605957 C-108.199104 424.22128662 -107.61427246 425.08197754 -107.01171875 425.96875 C-106.50084717 426.72607422 -105.98997559 427.48339844 -105.46362305 428.26367188 C-104.01937577 430.2832901 -104.01937577 430.2832901 -101 431 C-100.58169922 430.33645508 -100.16339844 429.67291016 -99.73242188 428.98925781 C-95.41902373 422.17523517 -90.99245825 415.44694007 -86.5 408.75 C-70.78868968 385.3243593 -70.78868968 385.3243593 -55.96875 361.33203125 C-52.03064028 354.66693683 -47.96448816 348.07590596 -43.8046875 341.546875 C-35.79455716 328.93621832 -28.39755807 315.97681781 -21 303 C-20.55237305 302.21560547 -20.10474609 301.43121094 -19.64355469 300.62304688 C-5.57125134 275.91807832 8.07313491 250.9062674 20.02246094 225.09912109 C20.92084524 223.16997318 21.83499412 221.24958276 22.7578125 219.33203125 C45.80515863 171.03980133 61.50398709 123.52285567 43 71 C34.70494719 49.23192663 22.19961597 30.60349177 6 14 C5.46560303 13.43643799 4.93120605 12.87287598 4.38061523 12.29223633 C0.08049428 7.84097524 -4.523182 4.14481674 -9.5625 0.5625 C-10.35043945 -0.00025635 -11.13837891 -0.5630127 -11.95019531 -1.14282227 C-23.00624164 -8.93597026 -34.4210412 -14.9573337 -47 -20 C-48.08704224 -20.4782019 -48.08704224 -20.4782019 -49.19604492 -20.96606445 C-55.92685457 -23.84663143 -62.6291273 -25.36166682 -69.8125 -26.6875 C-71.47055664 -27.00557617 -71.47055664 -27.00557617 -73.16210938 -27.33007812 C-75.20592809 -27.72155277 -77.25051878 -28.1090367 -79.29614258 -28.4909668 C-81.01794537 -28.81511658 -82.73513995 -29.16564879 -84.44433594 -29.55078125 C-112.46234478 -34.47561276 -143.93820321 -27.67289158 -169 -15 Z " fill="#C21F06" transform="translate(352,49)"/>
<path d="M0 0 C1.00430557 -0.00309677 1.00430557 -0.00309677 2.02890015 -0.0062561 C22.30138137 0.00485737 42.17163625 4.27729776 60.8125 12.25 C61.64160889 12.60400879 62.47071777 12.95801758 63.32495117 13.32275391 C75.05346989 18.39696482 85.18091559 24.80655242 95.375 32.4375 C96.26316406 33.0975 97.15132812 33.7575 98.06640625 34.4375 C109.56178618 43.29429352 118.93220087 53.71218643 127.375 65.4375 C128.06207031 66.36820312 128.74914062 67.29890625 129.45703125 68.2578125 C142.1999231 86.30395915 149.7871569 107.76787807 153.375 129.4375 C153.68244141 131.108125 153.68244141 131.108125 153.99609375 132.8125 C162.61819279 184.18831774 133.14703315 240.11873592 109.22265625 283.98828125 C107.59269624 287.031103 106.05043349 290.09586185 104.53564453 293.19628906 C100.803595 300.83266537 96.72325529 308.20611373 92.40698242 315.52832031 C89.50831017 320.44604555 86.73795628 325.41784682 84.01757812 330.4362793 C81.22805009 335.5331384 78.35187482 340.58043069 75.47094727 345.62597656 C74.4394917 347.43400877 73.41209838 349.24431031 72.38476562 351.0546875 C68.74303508 357.44974376 64.97943558 363.74069137 60.98950195 369.92675781 C58.57419888 373.68284081 56.25629088 377.49637138 53.9375 381.3125 C52.98055808 382.8815649 52.02352636 384.45057504 51.06640625 386.01953125 C49.80240058 388.0937402 48.53875752 390.16816294 47.27685547 392.24365234 C37.02437666 409.09738522 26.053058 425.4735931 15.07958984 441.86230469 C14.61051208 442.56377121 14.14143433 443.26523773 13.65814209 443.98796082 C12.77802501 445.30400678 11.89695923 446.61941904 11.01470947 447.93403625 C8.04313644 452.37946073 5.18669527 456.8893996 2.375 461.4375 C-1.96076522 459.53518528 -3.81540101 456.63188566 -6.29296875 452.734375 C-6.73208084 452.06013489 -7.17119293 451.38589478 -7.62361145 450.69122314 C-9.0288338 448.5289501 -10.42076886 446.35847509 -11.8125 444.1875 C-12.72895745 442.77287981 -13.64626743 441.35881155 -14.56445312 439.9453125 C-16.82808964 436.45551006 -19.08029195 432.95851993 -21.32751465 429.45812988 C-22.58360049 427.50197324 -23.84172796 425.54714698 -25.10058594 423.59277344 C-39.35610941 401.45463702 -53.13651609 379.05040943 -66.625 356.4375 C-67.04604004 355.73334961 -67.46708008 355.02919922 -67.90087891 354.30371094 C-75.74540961 341.16736028 -83.20870583 327.81925736 -90.625 314.4375 C-91.14352539 313.50244629 -91.66205078 312.56739258 -92.19628906 311.60400391 C-95.71763891 305.23919273 -99.18830968 298.84839506 -102.625 292.4375 C-103.43638428 290.92760498 -103.43638428 290.92760498 -104.26416016 289.38720703 C-123.48804976 253.4512311 -141.80817421 215.42661035 -150.625 175.4375 C-150.89098999 174.33039673 -150.89098999 174.33039673 -151.16235352 173.20092773 C-152.694498 166.39935176 -152.97247912 159.83275908 -152.9375 152.875 C-152.93331055 151.73111816 -152.92912109 150.58723633 -152.92480469 149.40869141 C-152.80164187 140.10465768 -151.7406177 131.47695743 -149.625 122.4375 C-149.22474609 120.51357422 -149.22474609 120.51357422 -148.81640625 118.55078125 C-142.8951157 91.28633147 -128.67588143 67.5557483 -109.625 47.4375 C-108.85542969 46.61507812 -108.08585937 45.79265625 -107.29296875 44.9453125 C-86.07243204 22.93629058 -57.76910251 8.63072756 -27.90527344 2.87915039 C-26.31627685 2.57138863 -24.73110805 2.24347079 -23.14941406 1.90014648 C-15.42873569 0.31523358 -7.86906833 0.01427428 0 0 Z M-88.625 38.4375 C-89.48351562 39.04464844 -90.34203125 39.65179688 -91.2265625 40.27734375 C-94.01191445 42.25200949 -94.01191445 42.25200949 -96.625 44.4375 C-96.625 45.0975 -96.625 45.7575 -96.625 46.4375 C-97.18832031 46.67597656 -97.75164062 46.91445312 -98.33203125 47.16015625 C-120.45578721 59.48463359 -135.43233088 93.04112723 -142.25048828 116.59863281 C-149.72794963 144.02618115 -148.66828118 171.56687209 -139.625 198.4375 C-139.29322754 199.4589209 -138.96145508 200.4803418 -138.61962891 201.53271484 C-131.21662009 224.13685579 -121.6197183 246.40187182 -110.62597656 267.49121094 C-109.49356048 269.69306973 -108.39730815 271.91094206 -107.3046875 274.1328125 C-101.81805617 285.27790622 -96.01381566 296.20556001 -89.95556641 307.04980469 C-88.69472399 309.31238062 -87.4448427 311.58058048 -86.19921875 313.8515625 C-81.39469123 322.59377569 -76.45260519 331.25186246 -71.4375 339.875 C-70.86733154 340.85758789 -70.29716309 341.84017578 -69.7097168 342.85253906 C-66.3207834 348.65430688 -62.81061783 354.35674885 -59.16088867 359.99829102 C-57.72860671 362.27295786 -56.40594487 364.57505379 -55.125 366.9375 C-52.87029958 371.07111743 -50.38268139 375.01218594 -47.83203125 378.96875 C-45.50713998 382.59677206 -43.25797902 386.27061222 -41.00146484 389.94140625 C-35.84335652 398.32799233 -30.58458232 406.61588826 -25.078125 414.77734375 C-22.41330346 418.73273708 -19.83125208 422.73976677 -17.25 426.75 C-15.37775667 429.64762349 -13.50199231 432.5429509 -11.625 435.4375 C-11.08955566 436.26443359 -10.55411133 437.09136719 -10.00244141 437.94335938 C-8.36340748 440.46730872 -6.71429692 442.98438962 -5.0625 445.5 C-4.54961426 446.29253174 -4.03672852 447.08506348 -3.50830078 447.90161133 C-3.02989746 448.62630615 -2.55149414 449.35100098 -2.05859375 450.09765625 C-1.63634521 450.74355713 -1.21409668 451.38945801 -0.77905273 452.05493164 C-0.39821533 452.5111792 -0.01737793 452.96742676 0.375 453.4375 C1.035 453.4375 1.695 453.4375 2.375 453.4375 C3.95811417 451.29812136 3.95811417 451.29812136 5.5625 448.5625 C7.80138492 444.93807565 10.0714884 441.39316805 12.5625 437.9375 C16.57277439 432.2833744 20.21565673 426.40665641 23.89672852 420.53588867 C26.70435202 416.06416286 29.54731155 411.62812425 32.5 407.25 C36.48384084 401.33635684 40.24590035 395.29420093 44.0078125 389.23828125 C45.91820604 386.16362329 47.85667955 383.10852658 49.8125 380.0625 C56.51823244 369.54308087 63.12957995 358.96120728 68.984375 347.94140625 C70.97439932 344.35824447 73.20620654 340.94724699 75.46875 337.53125 C77.69064616 333.92522181 79.69656765 330.22826692 81.71044922 326.50292969 C83.40517132 323.38193663 85.12997073 320.27939993 86.86328125 317.1796875 C101.29528219 291.30376753 115.09026516 265.14457503 127.18359375 238.08349609 C128.20258848 235.82040902 129.24747885 233.57367418 130.3125 231.33203125 C148.63784608 192.1948817 156.58035526 149.70350288 142.28466797 107.90771484 C141.10632359 104.69296191 139.77877739 101.55962446 138.375 98.4375 C138.08254395 97.78378418 137.79008789 97.13006836 137.48876953 96.45654297 C125.45804481 70.07046963 106.73388514 48.15576366 82.375 32.4375 C81.37210938 31.76074219 80.36921875 31.08398438 79.3359375 30.38671875 C70.21906433 24.44344067 60.47967056 20.39271838 50.375 16.4375 C49.6826123 16.15994873 48.99022461 15.88239746 48.27685547 15.59643555 C41.49515444 12.94219267 34.50883438 11.75611113 27.375 10.4375 C26.45332031 10.22867187 25.53164063 10.01984375 24.58203125 9.8046875 C-14.7653422 1.55161951 -56.89099157 15.63632942 -88.625 38.4375 Z " fill="#FC5830" transform="translate(248.625,18.5625)"/>
<path d="M0 0 C14.62599022 12.39934694 25.06356016 30.01815821 26.80908203 49.34326172 C28.1819251 69.41947781 22.61200182 89.11883589 9.33203125 104.47924805 C-3.81571816 118.91529196 -20.98894022 128.60502452 -40.77734375 129.5703125 C-61.36998113 130.09851003 -79.82848316 125.29918119 -95.3828125 111.21875 C-96.0428125 110.65027344 -96.7028125 110.08179688 -97.3828125 109.49609375 C-106.49807082 101.11076823 -112.96493446 90.06048908 -116.3828125 78.21875 C-116.67929688 77.33445312 -116.97578125 76.45015625 -117.28125 75.5390625 C-122.52425014 58.17463086 -119.80464132 39.1167988 -111.3828125 23.21875 C-110.96386719 22.42210937 -110.54492188 21.62546875 -110.11328125 20.8046875 C-100.29015455 3.32331051 -83.80893813 -8.91724746 -64.7578125 -14.78125 C-42.01764822 -19.57192756 -18.15576938 -14.44756184 0 0 Z M-95.5078125 14.28125 C-107.99174076 28.84583297 -111.47760705 46.07750727 -110.609375 64.7734375 C-109.01918737 81.93649708 -99.17744856 97.07171638 -86.1953125 107.90625 C-70.85069711 119.19454967 -53.65194506 123.37376057 -34.8203125 120.53125 C-16.36243896 116.62826352 -1.446952 106.59793227 9.05078125 90.9609375 C17.82265349 75.60469234 20.26626838 57.12391367 16.6171875 39.84375 C11.69687595 23.85273745 1.42088636 9.35434798 -13.3828125 1.21875 C-14.19621094 0.77015625 -15.00960937 0.3215625 -15.84765625 -0.140625 C-43.7256507 -14.74542949 -73.94462132 -7.9923564 -95.5078125 14.28125 Z " fill="#C72008" transform="translate(296.3828125,109.78125)"/>
<path d="M0 0 C1.09376953 -0.01160156 2.18753906 -0.02320312 3.31445312 -0.03515625 C13.18338813 0.00006898 21.65280477 2.31162729 30.8125 5.875 C31.86179687 6.2771875 32.91109375 6.679375 33.9921875 7.09375 C36.83156315 8.32891607 39.39272229 9.60961916 41.9375 11.375 C41.9375 12.035 41.9375 12.695 41.9375 13.375 C42.66453125 13.62378906 43.3915625 13.87257813 44.140625 14.12890625 C59.17223271 20.82594935 68.54033987 38.39554553 74.1875 52.9375 C81.24558813 73.64122519 78.60093439 94.41241288 69.69140625 114.0625 C59.96527791 132.43166889 43.6088812 146.14344524 24.01196289 152.77783203 C15.81266273 155.13813428 7.62171695 155.76372874 -0.875 155.75 C-1.92381348 155.74838867 -2.97262695 155.74677734 -4.05322266 155.74511719 C-12.36598082 155.61416717 -19.27554548 154.40150864 -27.0625 151.375 C-28.38701172 150.941875 -28.38701172 150.941875 -29.73828125 150.5 C-35.80534153 148.38643623 -40.54933906 145.09508061 -45.6171875 141.1796875 C-47.92330423 139.3611962 -47.92330423 139.3611962 -50.19140625 138.34765625 C-52.41386299 137.19234993 -53.55851837 135.87993722 -55.125 133.9375 C-57.19460818 131.39033426 -57.19460818 131.39033426 -59.4765625 129.0390625 C-73.4801533 114.34563965 -78.66795276 93.44684573 -78.2421875 73.76953125 C-77.53346752 53.28227391 -68.30945681 34.71436451 -53.71630859 20.50683594 C-38.66269761 6.50237287 -20.425189 -0.21741774 0 0 Z M-55.8125 30.1875 C-69.15310587 45.69595433 -74.19118363 64.64159885 -73.29345703 84.78222656 C-71.55591292 104.28827141 -60.94539785 122.89626257 -46.0625 135.375 C-27.97703453 148.23009306 -8.78641722 152.91074833 13.18212891 150.08642578 C26.34783453 147.72123391 38.9979936 141.23888848 48.9375 132.375 C49.54980469 131.83230469 50.16210938 131.28960937 50.79296875 130.73046875 C64.43559459 117.87086338 72.71147151 98.98590797 73.41064453 80.31420898 C73.64299543 59.21041051 65.31385278 40.04502895 50.6328125 25.015625 C34.17174887 9.34343023 15.49419489 4.60775165 -6.60546875 5.06640625 C-26.30478078 5.88792108 -42.51863819 16.17505106 -55.8125 30.1875 Z " fill="#FD5830" transform="translate(250.0625,88.625)"/>
<path d="M0 0 C4.16296231 4.71335397 6.9766613 10.08961138 10 15.5625 C15.25092033 24.96482411 20.66929345 34.24485919 26.24609375 43.45703125 C26.68808105 44.19002441 27.13006836 44.92301758 27.58544922 45.67822266 C28.61524761 47.36848546 29.66069195 49.04924577 30.71533203 50.72412109 C31.27462402 51.62340332 31.83391602 52.52268555 32.41015625 53.44921875 C32.92843994 54.27123779 33.44672363 55.09325684 33.98071289 55.94018555 C34.31707764 56.61992432 34.65344238 57.29966309 35 58 C34.505 58.99 34.505 58.99 34 60 C33.01 60 32.02 60 31 60 C31 59.01 31 58.02 31 57 C30.34 57 29.68 57 29 57 C28.896875 56.401875 28.79375 55.80375 28.6875 55.1875 C28.15981013 52.91889034 28.15981013 52.91889034 26.4375 51.4375 C25.963125 50.963125 25.48875 50.48875 25 50 C25 49.01 25 48.02 25 47 C23.515 46.505 23.515 46.505 22 46 C21.505 43.525 21.505 43.525 21 41 C20.34 41 19.68 41 19 41 C17.9923048 39.2335343 16.99408286 37.46166177 16 35.6875 C15.443125 34.70136719 14.88625 33.71523438 14.3125 32.69921875 C13 30 13 30 13 27 C12.34 27 11.68 27 11 27 C8 21.25 8 21.25 8 19 C7.34 19 6.68 19 6 19 C5.34 17.02 4.68 15.04 4 13 C3.34 13 2.68 13 2 13 C0.54815522 8.46298506 -0.23509196 4.81938524 0 0 Z " fill="#C91F05" transform="translate(164,344)"/>
<path d="M0 0 C0.66 0 1.32 0 2 0 C2.9073844 4.28945354 2.91130478 7.4671419 2.0625 11.75 C0.91809448 18.97212673 0.80382429 26.06902937 0.8125 33.375 C0.81165405 35.05094238 0.81165405 35.05094238 0.81079102 36.76074219 C0.841308 41.44843155 0.92621543 46.02085521 1.6015625 50.6640625 C2 54 2 54 0.5625 56 C-0.2109375 56.495 -0.2109375 56.495 -1 57 C-1 56.01 -1 55.02 -1 54 C-1.66 54 -2.32 54 -3 54 C-5.57897235 36.42555133 -4.40500448 18.3778726 -1 1 C-0.67 0.67 -0.34 0.34 0 0 Z " fill="#C61E04" transform="translate(96,138)"/>
<path d="M0 0 C0.66 0 1.32 0 2 0 C2.66 1.98 3.32 3.96 4 6 C4.66 6 5.32 6 6 6 C9 11.75 9 11.75 9 14 C9.66 14 10.32 14 11 14 C12.00484204 15.95585325 13.00373805 17.91476237 14 19.875 C14.556875 20.96554687 15.11375 22.05609375 15.6875 23.1796875 C17 26 17 26 17 28 C17.66 28 18.32 28 19 28 C19.28875 28.804375 19.5775 29.60875 19.875 30.4375 C20.73262568 33.1326468 20.73262568 33.1326468 23 34 C23.625 36.5625 23.625 36.5625 24 39 C25.485 39.495 25.485 39.495 27 40 C27 41.32 27 42.64 27 44 C27.66 44 28.32 44 29 44 C29 44.99 29 45.98 29 47 C31.475 46.505 31.475 46.505 34 46 C37.59378942 51.39068413 38.45356243 54.53673535 38 61 C38.66 61 39.32 61 40 61 C40.69906942 62.59915881 41.38389468 64.20455045 42.0625 65.8125 C42.44535156 66.70582031 42.82820313 67.59914063 43.22265625 68.51953125 C44 71 44 71 43 74 C39 67.25 39 67.25 39 65 C38.34 65 37.68 65 37 65 C36.70867187 64.46632813 36.41734375 63.93265625 36.1171875 63.3828125 C35.70726562 62.63773437 35.29734375 61.89265625 34.875 61.125 C34.48054688 60.40570313 34.08609375 59.68640625 33.6796875 58.9453125 C32.24290765 56.42593574 30.76721237 53.94035082 29.26953125 51.45703125 C25.70561897 45.5369039 22.25667425 39.55285363 18.8125 33.5625 C13.21220828 23.83007072 13.21220828 23.83007072 7.578125 14.1171875 C7.06531982 13.23603271 6.55251465 12.35487793 6.02416992 11.44702148 C5.06771972 9.80490496 4.10961402 8.1637513 3.1496582 6.52368164 C0 1.11086846 0 1.11086846 0 0 Z " fill="#C32007" transform="translate(166,357)"/>
<path d="M0 0 C1.32 0.66 2.64 1.32 4 2 C4.57544394 7.81721507 1.76154953 10.68315691 -1.640625 15.12890625 C-11.21228203 26.77653525 -11.21228203 26.77653525 -15.65625 27.33203125 C-18.43672984 26.93812994 -19.28540468 26.16580461 -21 24 C-20 22 -20 22 -16.625 20.1875 C-13.15658529 18.26685656 -11.85918869 16.5567088 -10 13 C-9.02499816 11.566014 -8.02274461 10.15033492 -7 8.75 C-6.505 8.06421875 -6.01 7.3784375 -5.5 6.671875 C-4 5 -4 5 -1 4 C-1.33 3.34 -1.66 2.68 -2 2 C-1.34 2 -0.68 2 0 2 C0 1.34 0 0.68 0 0 Z " fill="#C81D05" transform="translate(309,197)"/>
<path d="M0 0 C1.875 0.625 1.875 0.625 4 2 C5.25 5.125 5.25 5.125 6 8 C6.66 8 7.32 8 8 8 C8.20625 8.639375 8.4125 9.27875 8.625 9.9375 C9.305625 10.9584375 9.305625 10.9584375 10 12 C11.99760305 12.34740923 13.99787771 12.67966043 16 13 C18.375 15.0625 18.375 15.0625 20 17 C20.66 15.68 21.32 14.36 22 13 C22.66 13 23.32 13 24 13 C24.33 12.34 24.66 11.68 25 11 C25.33 11.99 25.66 12.98 26 14 C26.99 13.67 27.98 13.34 29 13 C27.61821263 16.81538304 25.86310038 19.97291881 23.5625 23.3125 C22.96566406 24.19550781 22.36882812 25.07851563 21.75390625 25.98828125 C20.88572266 26.98408203 20.88572266 26.98408203 20 28 C19.01 28 18.02 28 17 28 C13 22.85714286 13 22.85714286 13 19 C12.34 19 11.68 19 11 19 C9 16 9 16 9 13 C8.34 13 7.68 13 7 13 C5.2734375 10.6640625 5.2734375 10.6640625 3.375 7.625 C2.74335938 6.62726563 2.11171875 5.62953125 1.4609375 4.6015625 C0 2 0 2 0 0 Z " fill="#AE1B08" transform="translate(231,463)"/>
<path d="M0 0 C1.12490222 3.30069994 0.89608423 4.95974006 -0.5 8.125 C-1.41550729 10.12758597 -1.41550729 10.12758597 -2 12 C-1.505 12.99 -1.505 12.99 -1 14 C-1.58652344 14.07734375 -2.17304688 14.1546875 -2.77734375 14.234375 C-5.74219461 15.2556593 -6.71018689 16.74709817 -8.5625 19.25 C-9.16707031 20.06082031 -9.77164062 20.87164062 -10.39453125 21.70703125 C-12.08808729 24.06603292 -12.08808729 24.06603292 -13.75 26.9375 C-15 29 -15 29 -18 31 C-18.99 31 -19.98 31 -21 31 C-20.11785113 33.88214887 -20.11785113 33.88214887 -19 36 C-17.515 36.495 -17.515 36.495 -16 37 C-19.63 39.31 -23.26 41.62 -27 44 C-27.66 42.68 -28.32 41.36 -29 40 C-31.31 40 -33.62 40 -36 40 C-36.33 39.34 -36.66 38.68 -37 38 C-36.12859375 37.62230469 -35.2571875 37.24460938 -34.359375 36.85546875 C-19.57433974 30.02299033 -7.83328347 19.80242922 -1.5625 4.375 C-1.02809107 2.92158658 -0.50183359 1.46498004 0 0 Z " fill="#C4240C" transform="translate(310,188)"/>
<path d="M0 0 C0.66 0 1.32 0 2 0 C0.29433199 9.14178204 -2.06225812 18.01993305 -7 26 C-9.15234375 27.171875 -9.15234375 27.171875 -11 28 C-11.65772428 31.02934491 -11.65772428 31.02934491 -12 34 C-12.99 34.495 -12.99 34.495 -14 35 C-14.33 35.99 -14.66 36.98 -15 38 C-15.66 38 -16.32 38 -17 38 C-17 39.65 -17 41.3 -17 43 C-17.99 43 -18.98 43 -20 43 C-20.33 43.66 -20.66 44.32 -21 45 C-20.63647965 38.20496572 -17.78115821 33.38808016 -14.4375 27.5625 C-13.34539244 25.61454872 -12.25556465 23.66531761 -11.16796875 21.71484375 C-10.36238525 20.27407471 -10.36238525 20.27407471 -9.54052734 18.80419922 C-7.33839675 14.79569335 -5.27452152 10.72549392 -3.25 6.625 C-2.91540771 5.94767822 -2.58081543 5.27035645 -2.23608398 4.57250977 C-1.4872372 3.05004927 -0.74299493 1.52532488 0 0 Z " fill="#C82005" transform="translate(362,293)"/>
<path d="M0 0 C0.2784375 0.56332031 0.556875 1.12664062 0.84375 1.70703125 C2.0275304 4.05459575 3.24691794 6.37617486 4.5 8.6875 C5.13421875 9.86892578 5.13421875 9.86892578 5.78125 11.07421875 C6.85955778 13.14504385 6.85955778 13.14504385 9 14 C9.6328125 16.06640625 9.6328125 16.06640625 10.125 18.5625 C10.29257813 19.38878906 10.46015625 20.21507812 10.6328125 21.06640625 C10.75398437 21.70449219 10.87515625 22.34257812 11 23 C11.66 23 12.32 23 13 23 C13 24.32 13 25.64 13 27 C13.66 27 14.32 27 15 27 C15 27.99 15 28.98 15 30 C16.32 29.67 17.64 29.34 19 29 C23.73415837 35.16333825 26.02558484 40.30591663 27 48 C27.10957031 48.721875 27.21914062 49.44375 27.33203125 50.1875 C27.57416962 51.78884178 27.79052935 53.39405836 28 55 C25.60844862 51.96163451 23.68987882 48.81962904 21.8125 45.44140625 C21.20083984 44.34248047 20.58917969 43.24355469 19.95898438 42.11132812 C19.30554784 40.92862937 18.65256204 39.74568149 18 38.5625 C17.67040283 37.96606689 17.34080566 37.36963379 17.0012207 36.75512695 C14.65640663 32.50945027 12.32575112 28.25614228 10 24 C9.40832031 22.91960449 8.81664062 21.83920898 8.20703125 20.72607422 C6.6249405 17.82419156 5.05890266 14.91439132 3.5 12 C3.025625 11.12931885 2.55125 10.2586377 2.0625 9.36157227 C1.6396875 8.56162842 1.216875 7.76168457 0.78125 6.9375 C0.41064453 6.24527344 0.04003906 5.55304688 -0.34179688 4.83984375 C-1 3 -1 3 0 0 Z " fill="#C62106" transform="translate(138,302)"/>
<path d="M0 0 C0.99 0.33 1.98 0.66 3 1 C3 2.32 3 3.64 3 5 C3.99 5.33 4.98 5.66 6 6 C6.66015625 7.77734375 6.66015625 7.77734375 7.0625 9.9375 C7.70261846 13.35102341 7.70261846 13.35102341 10 16 C10.99 16 11.98 16 13 16 C14.37395963 18.69981565 15.7239569 21.40769046 17.0625 24.125 C17.64741211 25.26582031 17.64741211 25.26582031 18.24414062 26.4296875 C20.57675899 31.21878008 21.13288408 33.68069658 20 39 C20.96640463 41.70948941 20.96640463 41.70948941 22.5 44.1875 C23.96875 46.73046875 23.96875 46.73046875 25 49 C24.67 49.99 24.34 50.98 24 52 C7.94302574 20.26585619 7.94302574 20.26585619 3 9.125 C2.68095703 8.40844238 2.36191406 7.69188477 2.03320312 6.95361328 C0 2.27560263 0 2.27560263 0 0 Z " fill="#B8210A" transform="translate(112,251)"/>
<path d="M0 0 C-2.02519599 3.52036925 -4.05162315 7.04002677 -6.07910156 10.55908203 C-6.7659482 11.75160427 -7.45248165 12.94430697 -8.13867188 14.13720703 C-12.35585515 21.46795398 -16.61594505 28.76765286 -21 36 C-21.66 35.67 -22.32 35.34 -23 35 C-22.34 33.35 -21.68 31.7 -21 30 C-20.34 30 -19.68 30 -19 30 C-19 28.35 -19 26.7 -19 25 C-18.34 25 -17.68 25 -17 25 C-16.855625 23.96875 -16.71125 22.9375 -16.5625 21.875 C-16.376875 20.59625 -16.19125 19.3175 -16 18 C-15.9175 17.01 -15.835 16.02 -15.75 15 C-14.75941982 11.03767927 -12.81454749 7.96360452 -10 5 C-9.34 5 -8.68 5 -8 5 C-7.731875 4.195625 -7.46375 3.39125 -7.1875 2.5625 C-6.795625 1.716875 -6.40375 0.87125 -6 0 C-3 -1 -3 -1 0 0 Z " fill="#B61D09" transform="translate(320,382)"/>
<path d="M0 0 C0 0.66 0 1.32 0 2 C-0.66 2.33 -1.32 2.66 -2 3 C-2 4.32 -2 5.64 -2 7 C-4.57967797 7.86689178 -7.16276127 8.71873789 -9.75 9.5625 C-10.47960937 9.80935547 -11.20921875 10.05621094 -11.9609375 10.31054688 C-12.66992188 10.53935547 -13.37890625 10.76816406 -14.109375 11.00390625 C-14.75874023 11.21861572 -15.40810547 11.4333252 -16.07714844 11.65454102 C-18.35828032 12.06436854 -19.82201934 11.74791365 -22 11 C-22.33 10.67 -22.66 10.34 -23 10 C-23.60328125 10.22816406 -24.2065625 10.45632812 -24.828125 10.69140625 C-25.62734375 10.97886719 -26.4265625 11.26632813 -27.25 11.5625 C-28.03890625 11.85253906 -28.8278125 12.14257812 -29.640625 12.44140625 C-32.22741227 13.05384098 -33.49494634 12.72332269 -36 12 C-8.49344978 0 -8.49344978 0 0 0 Z " fill="#9A1C0B" transform="translate(214,17)"/>
<path d="M0 0 C1.82400208 2.73600312 3.17810284 5.47432223 4.56347656 8.44628906 C8.34808469 16.46314714 12.58298213 22.77597515 19 29 C20.33333333 30.33333333 21.66666667 31.66666667 23 33 C18.25 32.125 18.25 32.125 16 31 C16 30.34 16 29.68 16 29 C15.38125 29.350625 14.7625 29.70125 14.125 30.0625 C13.073125 30.5265625 13.073125 30.5265625 12 31 C11.34 30.67 10.68 30.34 10 30 C10.33 29.01 10.66 28.02 11 27 C11.66 27 12.32 27 13 27 C11.35 25.35 9.7 23.7 8 22 C6.68 23.32 5.36 24.64 4 26 C1.525 22.04 1.525 22.04 -1 18 C-0.34 18 0.32 18 1 18 C1.05391993 16.20866022 1.09275571 14.41686101 1.125 12.625 C1.14820313 11.62726563 1.17140625 10.62953125 1.1953125 9.6015625 C1.27216848 6.83737827 1.27216848 6.83737827 -1 5 C-0.625 2.375 -0.625 2.375 0 0 Z " fill="#C42811" transform="translate(188,185)"/>
<path d="M0 0 C16.12123943 -0.40177544 32.05713465 2.20730813 47.6328125 6.125 C47.6328125 6.455 47.6328125 6.785 47.6328125 7.125 C42.39360173 7.33045925 38.49243439 7.24329672 33.6328125 5.125 C27.52934678 4.1553341 21.57390685 3.97839062 15.40234375 3.9921875 C13.97217171 3.99075241 13.97217171 3.99075241 12.5131073 3.98928833 C10.51044651 3.98861152 8.50778346 3.9904308 6.50512695 3.99462891 C3.4441232 4.00000209 0.38326497 3.99465782 -2.67773438 3.98828125 C-4.63020866 3.98894177 -6.58268285 3.9902224 -8.53515625 3.9921875 C-9.44669968 3.99016327 -10.3582431 3.98813904 -11.29740906 3.98605347 C-15.46494262 4.00142321 -19.29550384 4.13096708 -23.3671875 5.125 C-24.97022377 5.18871368 -26.57556422 5.21144214 -28.1796875 5.1875 C-28.96988281 5.17847656 -29.76007813 5.16945313 -30.57421875 5.16015625 C-31.16589844 5.14855469 -31.75757813 5.13695312 -32.3671875 5.125 C-32.3671875 4.795 -32.3671875 4.465 -32.3671875 4.125 C-10.78976746 0.5697567 -10.78976746 0.5697567 0 0 Z " fill="#8B1C0E" transform="translate(246.3671875,11.875)"/>
<path d="M0 0 C1.14355469 1.70068359 1.14355469 1.70068359 2 4 C1.19238281 6.27978516 1.19238281 6.27978516 -0.296875 8.7890625 C-0.83868408 9.72177979 -1.38049316 10.65449707 -1.9387207 11.61547852 C-2.53644287 12.60862061 -3.13416504 13.6017627 -3.75 14.625 C-4.96813526 16.70923385 -6.18557578 18.79387389 -7.40234375 20.87890625 C-8.01319824 21.91418457 -8.62405273 22.94946289 -9.25341797 24.01611328 C-11.67854658 28.15923907 -14.00094657 32.3553064 -16.3125 36.5625 C-20.47166523 44.0823516 -24.71328685 51.55213525 -29 59 C-29.495 57.515 -29.495 57.515 -30 56 C-29.02065076 54.32111559 -28.01656081 52.65661761 -27 51 C-26.27833809 48.68308546 -25.59940471 46.35151077 -25 44 C-24.01 44 -23.02 44 -22 44 C-22 42.68 -22 41.36 -22 40 C-21.34 40 -20.68 40 -20 40 C-20.04125 39.236875 -20.0825 38.47375 -20.125 37.6875 C-20 35 -20 35 -18 32 C-17.67 31.34 -17.34 30.68 -17 30 C-16.01 30 -15.02 30 -14 30 C-13.87625 29.484375 -13.7525 28.96875 -13.625 28.4375 C-12.81358372 25.27297649 -11.9054087 22.13875015 -11 19 C-10.01 19 -9.02 19 -8 19 C-8 17.35 -8 15.7 -8 14 C-7.34 14 -6.68 14 -6 14 C-5.87625 13.38125 -5.7525 12.7625 -5.625 12.125 C-5 10 -5 10 -3 8 C-2.3574765 5.93125966 -2.3574765 5.93125966 -2 4 C-1.34 4 -0.68 4 0 4 C0 2.68 0 1.36 0 0 Z " fill="#9F1E0E" transform="translate(353,317)"/>
<path d="M0 0 C0.33 0.66 0.66 1.32 1 2 C1.66 2.309375 2.32 2.61875 3 2.9375 C5 4 5 4 6 7 C5.01 7.99 4.02 8.98 3 10 C4.98 9.67 6.96 9.34 9 9 C9 9.66 9 10.32 9 11 C9.61875 11.309375 10.2375 11.61875 10.875 11.9375 C12.25 12.625 13.625 13.3125 15 14 C14.690625 15.175625 14.690625 15.175625 14.375 16.375 C14.25125 17.24125 14.1275 18.1075 14 19 C14.66 19.66 15.32 20.32 16 21 C15.34 21.33 14.68 21.66 14 22 C9.5844459 18.89971733 5.39155782 15.61261195 1.4375 11.9375 C0.75558594 11.30714844 0.07367188 10.67679688 -0.62890625 10.02734375 C-2 8 -2 8 -1.77734375 5.44140625 C-1.1984385 3.6232365 -0.60339643 1.81018929 0 0 Z " fill="#C91E04" transform="translate(195,205)"/>
<path d="M0 0 C1.92645085 2.88967627 3.18212478 5.57777715 4.53125 8.76953125 C5.01207031 9.90583984 5.49289063 11.04214844 5.98828125 12.21289062 C6.73658203 13.99469727 6.73658203 13.99469727 7.5 15.8125 C7.99886719 16.98876953 8.49773437 18.16503906 9.01171875 19.37695312 C11.19031792 24.54309512 13.28064359 29.65992232 15 35 C14.01 35.66 13.02 36.32 12 37 C9.49633437 33.29892907 8.69576598 30.37338615 8 26 C7.34 25.67 6.68 25.34 6 25 C5.66666667 23.66666667 5.33333333 22.33333333 5 21 C4.34 20.67 3.68 20.34 3 20 C2.5859375 17.71484375 2.5859375 17.71484375 2.375 14.9375 C2.26285156 13.55884766 2.26285156 13.55884766 2.1484375 12.15234375 C2.07496094 11.08693359 2.07496094 11.08693359 2 10 C1.34 10 0.68 10 0 10 C-0.19412181 8.52168779 -0.38012131 7.04230684 -0.5625 5.5625 C-0.66691406 4.73878906 -0.77132812 3.91507813 -0.87890625 3.06640625 C-0.91886719 2.38449219 -0.95882812 1.70257813 -1 1 C-0.67 0.67 -0.34 0.34 0 0 Z " fill="#CA1F06" transform="translate(109,231)"/>
<path d="M0 0 C0.66 0 1.32 0 2 0 C2 1.65 2 3.3 2 5 C2.66 5 3.32 5 4 5 C5.44500128 9.33500383 5.18431828 13.52219087 5.1875 18.0625 C5.19974609 18.98611328 5.21199219 19.90972656 5.22460938 20.86132812 C5.22654297 21.74369141 5.22847656 22.62605469 5.23046875 23.53515625 C5.23457764 24.343479 5.23868652 25.15180176 5.24291992 25.98461914 C5 28 5 28 3 30 C1.060408 28.060408 1.37148871 24.52943007 1.0625 21.9375 C0.54165803 17.67935321 -0.00834941 13.50999431 -1.1875 9.375 C-1.98903409 6.04555069 -2.07265267 4.217958 -1 1 C-0.67 0.67 -0.34 0.34 0 0 Z " fill="#C81F05" transform="translate(400,127)"/>
<path d="M0 0 C2.31 0.66 4.62 1.32 7 2 C7 2.66 7 3.32 7 4 C7.66 4 8.32 4 9 4 C9.2475 4.5775 9.495 5.155 9.75 5.75 C10.93990475 8.13449889 10.93990475 8.13449889 13.125 10.125 C15 12 15 12 15 14 C15.66 14 16.32 14 17 14 C17 15.32 17 16.64 17 18 C17.66 18 18.32 18 19 18 C18.67 19.98 18.34 21.96 18 24 C14.96333516 21.11854248 12.53369588 18.10707427 10.125 14.6875 C7.70717577 11.30073497 5.2605456 8.05129077 2.5 4.9375 C0 2 0 2 0 0 Z " fill="#C81F03" transform="translate(362,66)"/>
<path d="M0 0 C0.99 0 1.98 0 3 0 C3.4025937 3.52269485 3.13372795 4.79940808 1.125 7.8125 C0.42375 8.534375 -0.2775 9.25625 -1 10 C-1.66 10 -2.32 10 -3 10 C-3 11.98 -3 13.96 -3 16 C-3.639375 16.103125 -4.27875 16.20625 -4.9375 16.3125 C-5.618125 16.539375 -6.29875 16.76625 -7 17 C-7.33 17.99 -7.66 18.98 -8 20 C-8.65129797 21.34090759 -9.31513275 22.67592331 -10 24 C-10 23.34 -10 22.68 -10 22 C-11.65 22.99 -13.3 23.98 -15 25 C-12.91814784 19.40171594 -9.79267426 14.6827968 -6.5625 9.6875 C-5.97662109 8.75615234 -5.39074219 7.82480469 -4.78710938 6.86523438 C-4.21927734 5.98544922 -3.65144531 5.10566406 -3.06640625 4.19921875 C-2.55021729 3.39315186 -2.03402832 2.58708496 -1.50219727 1.7565918 C-1.00647217 1.1769165 -0.51074707 0.59724121 0 0 Z M-16 25 C-16 28 -16 28 -16 28 Z " fill="#C91F06" transform="translate(284,428)"/>
<path d="M0 0 C7.37400506 2.20838079 13.90173434 5.32692735 20.6875 8.9375 C21.69361328 9.46279297 22.69972656 9.98808594 23.73632812 10.52929688 C28.67341925 13.12965008 33.44209365 15.7776301 38 19 C36.125 20.0625 36.125 20.0625 34 21 C33.34 20.67 32.68 20.34 32 20 C32 20.66 32 21.32 32 22 C28.17902761 21.46930939 25.93828597 20.50298434 23 18 C23.33 17.01 23.66 16.02 24 15 C24.66 14.67 25.32 14.34 26 14 C24.96101563 13.48050781 23.92203125 12.96101563 22.8515625 12.42578125 C15.234375 8.6171875 7.6171875 4.80859375 0 1 C0 0.67 0 0.34 0 0 Z " fill="#AA1F0A" transform="translate(304,22)"/>
<path d="M0 0 C5.52855423 3.74514964 9.48480484 7.28780787 13 13 C13 13.66 13 14.32 13 15 C13.66 15 14.32 15 15 15 C19 20.41176471 19 20.41176471 19 23 C19.66 23 20.32 23 21 23 C25 29.75 25 29.75 25 32 C23.125 31.8125 23.125 31.8125 21 31 C19.875 28.5 19.875 28.5 19 26 C18.34 25.67 17.68 25.34 17 25 C17 23.68 17 22.36 17 21 C16.34 21 15.68 21 15 21 C14.731875 20.195625 14.46375 19.39125 14.1875 18.5625 C13.795625 17.716875 13.40375 16.87125 13 16 C12.01 15.67 11.02 15.34 10 15 C9.3125 12.9375 9.3125 12.9375 9 11 C8.34 11 7.68 11 7 11 C7 10.34 7 9.68 7 9 C4.36 8.67 1.72 8.34 -1 8 C-0.67 5.36 -0.34 2.72 0 0 Z " fill="#97190A" transform="translate(362,59)"/>
<path d="M0 0 C0.33 0.66 0.66 1.32 1 2 C1.66 2 2.32 2 3 2 C2.690625 3.010625 2.38125 4.02125 2.0625 5.0625 C1.02352081 8.6731369 0.45688819 12.26874647 0 16 C-0.66 16 -1.32 16 -2 16 C-2.33 19.63 -2.66 23.26 -3 27 C-5.31 27.99 -7.62 28.98 -10 30 C-6.66666667 20 -3.33333333 10 0 0 Z " fill="#C81F06" transform="translate(395,215)"/>
<path d="M0 0 C0 0.99 0 1.98 0 3 C-2.1171875 4.60546875 -2.1171875 4.60546875 -4.875 6.1875 C-5.77992188 6.71730469 -6.68484375 7.24710938 -7.6171875 7.79296875 C-10 9 -10 9 -12 9 C-12 9.99 -12 10.98 -12 12 C-11.01 12.33 -10.02 12.66 -9 13 C-11.64 14.65 -14.28 16.3 -17 18 C-17 17.34 -17 16.68 -17 16 C-18.98 16 -20.96 16 -23 16 C-23.66 17.32 -24.32 18.64 -25 20 C-25.99 19.34 -26.98 18.68 -28 18 C-19.01822339 11.13012107 -10.15405841 5.017098 0 0 Z " fill="#C82008" transform="translate(177,30)"/>
<path d="M0 0 C3.46675219 4.1293948 6.33945964 8.49978042 9.1875 13.0625 C9.86329102 14.12307617 9.86329102 14.12307617 10.55273438 15.20507812 C10.98263672 15.89150391 11.41253906 16.57792969 11.85546875 17.28515625 C12.24371826 17.90269775 12.63196777 18.52023926 13.03198242 19.15649414 C14.04692496 21.08936454 14.55880076 22.86876336 15 25 C13.35 24.67 11.7 24.34 10 24 C9.67 22.68 9.34 21.36 9 20 C8.01 20 7.02 20 6 20 C5.66226563 19.14535156 5.32453125 18.29070312 4.9765625 17.41015625 C4.53054687 16.30542969 4.08453125 15.20070313 3.625 14.0625 C3.18414062 12.96035156 2.74328125 11.85820312 2.2890625 10.72265625 C1.28958568 7.88769814 1.28958568 7.88769814 -1 7 C-0.67 4.69 -0.34 2.38 0 0 Z " fill="#C62006" transform="translate(204,411)"/>
<path d="M0 0 C2.6274655 1.31373275 2.76645555 2.41993626 3.83984375 5.12109375 C4.18080078 5.97509766 4.52175781 6.82910156 4.87304688 7.70898438 C5.39995117 9.05959961 5.39995117 9.05959961 5.9375 10.4375 C6.28490234 11.30310547 6.63230469 12.16871094 6.99023438 13.06054688 C13.68099542 29.9827542 13.68099542 29.9827542 12 35 C12 34.01 12 33.02 12 32 C11.34 32 10.68 32 10 32 C10 30.35 10 28.7 10 27 C8.35 27.66 6.7 28.32 5 29 C4.67 27.68 4.34 26.36 4 25 C4.99 24.67 5.98 24.34 7 24 C5.90677781 20.63623941 4.75284957 17.30701409 3.5 14 C0 4.69035533 0 4.69035533 0 0 Z " fill="#9A1B09" transform="translate(392,100)"/>
<path d="M0 0 C0.66 0 1.32 0 2 0 C2.33 0.66 2.66 1.32 3 2 C3.66 1.34 4.32 0.68 5 0 C5.66 2.64 6.32 5.28 7 8 C6.34 8 5.68 8 5 8 C5.80315494 17.15349384 5.80315494 17.15349384 8.5625 25.8125 C10.38488152 29.85343293 10.71163469 33.61485855 11 38 C9.17067646 35.25601469 8.32195988 33.27295949 7.34375 30.17578125 C7.04339844 29.22896484 6.74304688 28.28214844 6.43359375 27.30664062 C6.12550781 26.31857422 5.81742187 25.33050781 5.5 24.3125 C5.19191406 23.34376953 4.88382812 22.37503906 4.56640625 21.37695312 C-0.35903137 5.74450196 -0.35903137 5.74450196 0 0 Z " fill="#C72007" transform="translate(93,192)"/>
<path d="M0 0 C3.45838583 1.15279528 3.8111958 1.80962148 5.69921875 4.78125 C6.18583984 5.54050781 6.67246094 6.29976563 7.17382812 7.08203125 C7.67333984 7.87996094 8.17285156 8.67789062 8.6875 9.5 C9.19861328 10.29792969 9.70972656 11.09585937 10.23632812 11.91796875 C14 17.8373352 14 17.8373352 14 19 C12.35 19 10.7 19 9 19 C8.34 17.35 7.68 15.7 7 14 C6.34 14 5.68 14 5 14 C4.38125 12.63875 4.38125 12.63875 3.75 11.25 C2.10949282 8.20334382 0.55281639 6.28873194 -2 4 C-1.34 2.68 -0.68 1.36 0 0 Z " fill="#C91E04" transform="translate(232,457)"/>
<path d="M0 0 C0.66 0 1.32 0 2 0 C2.66 1.98 3.32 3.96 4 6 C4.66 6 5.32 6 6 6 C9 11.75 9 11.75 9 14 C9.66 14 10.32 14 11 14 C12.00484204 15.95585325 13.00373805 17.91476237 14 19.875 C14.556875 20.96554687 15.11375 22.05609375 15.6875 23.1796875 C17 26 17 26 17 28 C17.66 28 18.32 28 19 28 C19.28875 28.804375 19.5775 29.60875 19.875 30.4375 C20.73262568 33.1326468 20.73262568 33.1326468 23 34 C23.625 36.5625 23.625 36.5625 24 39 C25.485 39.495 25.485 39.495 27 40 C27.33 42.64 27.66 45.28 28 48 C25.44147047 44.74871002 23.35570363 41.32823157 21.26953125 37.7578125 C20.73835945 36.85057938 20.73835945 36.85057938 20.19645691 35.92501831 C19.44648031 34.64306206 18.69766956 33.36042313 17.94995117 32.07714844 C16.8355736 30.16460002 15.71795579 28.2539798 14.59960938 26.34375 C12.39110437 22.56749152 10.19268157 18.78546607 8 15 C7.61503357 14.33560913 7.23006714 13.67121826 6.83343506 12.98669434 C5.70256067 11.03179163 4.57521668 9.07490227 3.44921875 7.1171875 C3.10172073 6.51633331 2.75422272 5.91547913 2.39619446 5.29641724 C0 1.11565014 0 1.11565014 0 0 Z " fill="#98200F" transform="translate(166,357)"/>
<path d="M0 0 C-1.28524778 3.4990717 -2.80121844 6.38799884 -4.9375 9.4375 C-7.28291615 12.86673926 -9.26065595 16.23142122 -11 20 C-12.5625 18.8125 -12.5625 18.8125 -14 17 C-13.74137844 13.63791975 -12.74628297 10.87623078 -11 8 C-10.34 7.67 -9.68 7.34 -9 7 C-8.5978125 5.7934375 -8.5978125 5.7934375 -8.1875 4.5625 C-7 2 -7 2 -4.5 0.6875 C-2 0 -2 0 0 0 Z " fill="#C81F06" transform="translate(125,82)"/>
<path d="M0 0 C-1.46877291 4.1679315 -3.55657842 7.49573426 -6.0625 11.125 C-8.99014343 15.33318679 -8.99014343 15.33318679 -11 20 C-11.66 20 -12.32 20 -13 20 C-13.99 22.475 -13.99 22.475 -15 25 C-15.33 25 -15.66 25 -16 25 C-16.3125 22.3125 -16.3125 22.3125 -16 19 C-14.37550757 17.29220027 -12.70779973 15.62449243 -11 14 C-10.12761142 11.32209104 -10.12761142 11.32209104 -10 9 C-10.66 8.67 -11.32 8.34 -12 8 C-10.125 6.9375 -10.125 6.9375 -8 6 C-7.34 6.33 -6.68 6.66 -6 7 C-6 5.68 -6 4.36 -6 3 C-5.34 3 -4.68 3 -4 3 C-4 2.34 -4 1.68 -4 1 C-2 0 -2 0 0 0 Z " fill="#A61C0B" transform="translate(297,419)"/>
<path d="M0 0 C1.14936124 3.44808371 0.82439231 4.31698863 -0.2578125 7.68359375 C-0.55163818 8.60640137 -0.84546387 9.52920898 -1.14819336 10.47998047 C-1.63171265 11.94395264 -1.63171265 11.94395264 -2.125 13.4375 C-2.4454126 14.42637207 -2.7658252 15.41524414 -3.09594727 16.43408203 C-5.40078737 23.44581173 -7.92562256 30.2845396 -11 37 C-11.33 37 -11.66 37 -12 37 C-11.67 33.7 -11.34 30.4 -11 27 C-10.34 27 -9.68 27 -9 27 C-9 24.36 -9 21.72 -9 19 C-8.34 19 -7.68 19 -7 19 C-7 17.68 -7 16.36 -7 15 C-6.34 15 -5.68 15 -5 15 C-4.731875 13.824375 -4.46375 12.64875 -4.1875 11.4375 C-3.18552881 7.39357312 -1.7340076 3.7832893 0 0 Z " fill="#82180D" transform="translate(404,204)"/>
<path d="M0 0 C5.89082466 8.83623699 4.31022708 22.14542847 4.26074219 32.40307617 C4.24989457 35.0886019 4.26075736 37.77347726 4.2734375 40.45898438 C4.27211798 42.17187647 4.26955989 43.88476817 4.265625 45.59765625 C4.26967346 46.39760513 4.27372192 47.19755402 4.27789307 48.02174377 C4.24517513 51.87177175 4.1856493 53.72152606 2 57 C2.01047363 55.8855249 2.02094727 54.7710498 2.03173828 53.62280273 C2.0680979 49.46495815 2.09095832 45.30712747 2.10986328 41.14916992 C2.1198846 39.35389844 2.13350533 37.55864312 2.15087891 35.76342773 C2.17529809 33.17427565 2.18652198 30.58534049 2.1953125 27.99609375 C2.20563507 27.20101913 2.21595764 26.40594452 2.22659302 25.58677673 C2.22756304 20.70488295 1.4929843 16.69473579 0 12 C-0.1953125 8.69140625 -0.1953125 8.69140625 -0.125 5.5625 C-0.10695313 4.51191406 -0.08890625 3.46132812 -0.0703125 2.37890625 C-0.04710937 1.59386719 -0.02390625 0.80882812 0 0 Z " fill="#7B1A0E" transform="translate(405,136)"/>
<path d="M0 0 C0.96679688 0.40992188 1.93359375 0.81984375 2.9296875 1.2421875 C15.07995351 6.30988639 25.78817332 8.27658586 39 9 C39 9.33 39 9.66 39 10 C30.65247182 10.09426318 22.43876646 10.15090365 14.13671875 9.12109375 C11.81218508 8.85738301 11.81218508 8.85738301 9 10 C8.01 9.34 7.02 8.68 6 8 C6.66 8 7.32 8 8 8 C8 7.01 8 6.02 8 5 C6.8553125 4.814375 6.8553125 4.814375 5.6875 4.625 C3 4 3 4 0 2 C0 1.34 0 0.68 0 0 Z " fill="#B72714" transform="translate(217,222)"/>
<path d="M0 0 C0.99 0.66 1.98 1.32 3 2 C2.67 4.64 2.34 7.28 2 10 C1.34 10 0.68 10 0 10 C0 11.65 0 13.3 0 15 C-1.98 15.66 -3.96 16.32 -6 17 C-5.34496718 12.94180817 -4.05440879 9.46028718 -2.4375 5.6875 C-1.75494141 4.08455078 -1.75494141 4.08455078 -1.05859375 2.44921875 C-0.53458984 1.23685547 -0.53458984 1.23685547 0 0 Z " fill="#C72007" transform="translate(378,259)"/>
<path d="M0 0 C0.66 0 1.32 0 2 0 C2.77249145 5.40744018 3.09752461 10.53862186 3 16 C3.99 15.67 4.98 15.34 6 15 C6 18.3 6 21.6 6 25 C1.70346547 20.70346547 -0.28748884 13.74577021 -2 8 C-1.93488758 4.70252099 -1.36501222 3.04025449 0 0 Z " fill="#BD1F08" transform="translate(106,225)"/>
<path d="M0 0 C0 3.92709135 -1.27900462 4.8189713 -3.875 7.6875 C-4.59429687 8.49574219 -5.31359375 9.30398437 -6.0546875 10.13671875 C-8 12 -8 12 -10 12 C-10.33 12.99 -10.66 13.98 -11 15 C-12.84765625 16.82421875 -12.84765625 16.82421875 -15.0625 18.6875 C-15.79597656 19.31011719 -16.52945313 19.93273437 -17.28515625 20.57421875 C-18.13400391 21.27998047 -18.13400391 21.27998047 -19 22 C-19.66 21.67 -20.32 21.34 -21 21 C-14.35150847 13.52992682 -7.59684563 6.52570688 0 0 Z " fill="#9D1F0D" transform="translate(148,49)"/>
<path d="M0 0 C2 3 2 3 1.625 5.6875 C1.41875 6.450625 1.2125 7.21375 1 8 C0.67 8 0.34 8 0 8 C-0.061875 8.94875 -0.12375 9.8975 -0.1875 10.875 C-0.455625 11.90625 -0.72375 12.9375 -1 14 C-3.5625 15.375 -3.5625 15.375 -6 16 C-6.33 15.34 -6.66 14.68 -7 14 C-7.66 13.67 -8.32 13.34 -9 13 C-6.03 8.71 -3.06 4.42 0 0 Z " fill="#C52007" transform="translate(262,462)"/>
<path d="M0 0 C5.5 -0.36666667 5.5 -0.36666667 7.875 1.375 C9 3 9 3 9 5 C10.32 5.66 11.64 6.32 13 7 C12.01 7.99 11.02 8.98 10 10 C8.53686228 9.23832543 7.07963339 8.46529293 5.625 7.6875 C4.81289063 7.25824219 4.00078125 6.82898437 3.1640625 6.38671875 C1 5 1 5 -1 2 C-0.67 1.34 -0.34 0.68 0 0 Z " fill="#C81F05" transform="translate(336,42)"/>
<path d="M0 0 C0.33 0.66 0.66 1.32 1 2 C0.06553465 4.03144641 -0.93224776 6.03533587 -2 8 C-2.66 8 -3.32 8 -4 8 C-4.36402369 9.43503555 -4.71586591 10.87316506 -5.0625 12.3125 C-5.25972656 13.11300781 -5.45695312 13.91351563 -5.66015625 14.73828125 C-6.19885554 17.15957179 -6.19885554 17.15957179 -5 20 C-5.99 20 -6.98 20 -8 20 C-8.66 20.99 -9.32 21.98 -10 23 C-10.66 23.99 -11.32 24.98 -12 26 C-12.66 26 -13.32 26 -14 26 C-12.50521273 20.8450039 -10.21635353 16.49673523 -7.5625 11.875 C-7.16740234 11.17246094 -6.77230469 10.46992187 -6.36523438 9.74609375 C-4.42522254 6.33089821 -2.4714954 3.06751519 0 0 Z " fill="#A21E0A" transform="translate(118,82)"/>
<path d="M0 0 C-2 4 -4 8 -6 12 C-6.66 12 -7.32 12 -8 12 C-8 12.99 -8 13.98 -8 15 C-8.66 15 -9.32 15 -10 15 C-10.66 16.32 -11.32 17.64 -12 19 C-12.12092376 13.67935442 -11.97086624 10.45629936 -9 6 C-8.34 6 -7.68 6 -7 6 C-5.98133771 4.34467377 -4.98189187 2.67739862 -4 1 C-2 0 -2 0 0 0 Z " fill="#A11B09" transform="translate(281,444)"/>
<path d="M0 0 C0.2784375 0.56332031 0.556875 1.12664062 0.84375 1.70703125 C2.0275304 4.05459575 3.24691794 6.37617486 4.5 8.6875 C5.13421875 9.86892578 5.13421875 9.86892578 5.78125 11.07421875 C6.85955778 13.14504385 6.85955778 13.14504385 9 14 C9.6328125 16.06640625 9.6328125 16.06640625 10.125 18.5625 C10.29257813 19.38878906 10.46015625 20.21507812 10.6328125 21.06640625 C10.75398437 21.70449219 10.87515625 22.34257812 11 23 C11.66 23 12.32 23 13 23 C13 24.32 13 25.64 13 27 C13.66 27 14.32 27 15 27 C14.67 28.32 14.34 29.64 14 31 C12.06074205 27.45929322 10.12390879 23.91726567 8.1875 20.375 C7.64029297 19.37597656 7.09308594 18.37695312 6.52929688 17.34765625 C5.47398553 15.4161167 4.42287653 13.48227382 3.37646484 11.54589844 C2.56419365 10.04352809 1.74462008 8.54500097 0.90869141 7.05566406 C0.05078125 5.4765625 0.05078125 5.4765625 -1 3 C-0.67 2.01 -0.34 1.02 0 0 Z " fill="#9E210F" transform="translate(138,302)"/>
<path d="M0 0 C2.63116393 2.52591737 5.05224341 5.18247655 7.4375 7.9375 C10.17762368 11.09690985 12.9983981 14.08935573 16 17 C11.25 16.125 11.25 16.125 9 15 C9 14.34 9 13.68 9 13 C8.38125 13.350625 7.7625 13.70125 7.125 14.0625 C6.42375 14.371875 5.7225 14.68125 5 15 C4.34 14.67 3.68 14.34 3 14 C3.33 13.01 3.66 12.02 4 11 C4.66 11 5.32 11 6 11 C5.195625 10.29875 4.39125 9.5975 3.5625 8.875 C0.76566189 5.73708407 0.28691249 4.11241237 0 0 Z " fill="#BF2514" transform="translate(195,201)"/>
<path d="M0 0 C0.66 0.33 1.32 0.66 2 1 C2 2.32 2 3.64 2 5 C2.928125 5.20625 3.85625 5.4125 4.8125 5.625 C8 7 8 7 9.875 10 C11 13 11 13 11 15 C10.01 15 9.02 15 8 15 C8 13.68 8 12.36 8 11 C7.34 11 6.68 11 6 11 C6 10.34 6 9.68 6 9 C4.35 9.33 2.7 9.66 1 10 C-1.56687367 6.1496895 -0.83288724 4.41430237 0 0 Z " fill="#C51F06" transform="translate(381,85)"/>
<path d="M0 0 C0.33 0.66 0.66 1.32 1 2 C0 4 0 4 -2.94140625 5.0703125 C-4.13636719 5.41835938 -5.33132812 5.76640625 -6.5625 6.125 C-7.76003906 6.47820313 -8.95757812 6.83140625 -10.19140625 7.1953125 C-11.58166016 7.59363281 -11.58166016 7.59363281 -13 8 C-13.33 7.34 -13.66 6.68 -14 6 C-13.34 6 -12.68 6 -12 6 C-11.773125 5.38125 -11.54625 4.7625 -11.3125 4.125 C-8.71848972 -0.07482617 -4.60793369 -0.2633105 0 0 Z " fill="#C91E05" transform="translate(208,21)"/>
<path d="M0 0 C1.875 0.625 1.875 0.625 4 2 C5.25 5.125 5.25 5.125 6 8 C6.66 8 7.32 8 8 8 C9.47265625 10.01171875 9.47265625 10.01171875 11.0625 12.6875 C11.58972656 13.55761719 12.11695313 14.42773438 12.66015625 15.32421875 C13.96711737 17.9343306 14.58056486 20.12609257 15 23 C14.34 22.67 13.68 22.34 13 22 C13 21.01 13 20.02 13 19 C12.34 19 11.68 19 11 19 C9 16 9 16 9 13 C8.34 13 7.68 13 7 13 C5.2734375 10.6640625 5.2734375 10.6640625 3.375 7.625 C2.74335938 6.62726563 2.11171875 5.62953125 1.4609375 4.6015625 C0 2 0 2 0 0 Z " fill="#80190D" transform="translate(231,463)"/>
<path d="M0 0 C0.99 0 1.98 0 3 0 C3.97809068 2.53123969 4.30331868 4.27526486 3.23876953 6.81884766 C2.07557227 8.86327046 0.84405553 10.84015018 -0.4375 12.8125 C-0.87126953 13.50537109 -1.30503906 14.19824219 -1.75195312 14.91210938 C-2.82152465 16.61637169 -3.90904837 18.30934397 -5 20 C-5.66 19.67 -6.32 19.34 -7 19 C-6.34 17.35 -5.68 15.7 -5 14 C-4.34 14 -3.68 14 -3 14 C-3 12.35 -3 10.7 -3 9 C-2.34 9 -1.68 9 -1 9 C-0.67 6.03 -0.34 3.06 0 0 Z " fill="#86170B" transform="translate(304,398)"/>
<path d="M0 0 C1.12490222 3.30069994 0.89608423 4.95974006 -0.5 8.125 C-1.41550729 10.12758597 -1.41550729 10.12758597 -2 12 C-1.67 12.66 -1.34 13.32 -1 14 C-1.88171875 14.11021484 -1.88171875 14.11021484 -2.78125 14.22265625 C-5.78238268 15.27410942 -6.68552496 16.86012068 -8.5 19.4375 C-10.74960535 22.62273667 -12.34519693 24.53326982 -16 26 C-15.125 24.83333333 -14.25 23.66666667 -13.375 22.5 C-12.8284375 21.76523438 -12.281875 21.03046875 -11.71875 20.2734375 C-10.63803355 18.84394437 -9.53650425 17.42971846 -8.40625 16.0390625 C-4.42407074 11.06133842 -2.09267758 6.00721565 0 0 Z " fill="#B93727" transform="translate(310,188)"/>
<path d="M0 0 C0.66 0 1.32 0 2 0 C2.83848804 1.45537568 3.67063934 2.91440373 4.5 4.375 C5.19609375 5.59316406 5.19609375 5.59316406 5.90625 6.8359375 C7 9 7 9 7 11 C8.32 10.67 9.64 10.34 11 10 C11.66 14.29 12.32 18.58 13 23 C10.90041265 20.2005502 9.19246334 17.72232005 7.51953125 14.70703125 C7.07802734 13.91232422 6.63652344 13.11761719 6.18164062 12.29882812 C5.72982422 11.47833984 5.27800781 10.65785156 4.8125 9.8125 C4.34908203 8.98041016 3.88566406 8.14832031 3.40820312 7.29101562 C0 1.13215666 0 1.13215666 0 0 Z " fill="#A21F0E" transform="translate(153,334)"/>
<path d="M0 0 C0.66 0.33 1.32 0.66 2 1 C2 1.66 2 2.32 2 3 C2.66 3 3.32 3 4 3 C4 2.34 4 1.68 4 1 C4.66 1 5.32 1 6 1 C4.06375702 7.20477864 1.74390859 13.10825719 -1 19 C-1.33 19 -1.66 19 -2 19 C-2 17.35 -2 15.7 -2 14 C-1.34 14 -0.68 14 0 14 C0.07105651 9.73660933 0.10938394 6.12056892 -1 2 C-0.67 1.34 -0.34 0.68 0 0 Z " fill="#951A0A" transform="translate(380,255)"/>
<path d="M0 0 C0 0.66 0 1.32 0 2 C-0.99 2.495 -0.99 2.495 -2 3 C-2 4.32 -2 5.64 -2 7 C-3.32 7.33 -4.64 7.66 -6 8 C-6 7.01 -6 6.02 -6 5 C-9.49234244 4.90021879 -12.59437148 5.22157062 -16 6 C-11.10143083 1.5467553 -6.60452917 0 0 0 Z " fill="#AB1F0C" transform="translate(214,17)"/>
<path d="M0 0 C0.99 0 1.98 0 3 0 C4.02028865 1.31787285 5.01971384 2.65210653 6 4 C6.99 4.33 7.98 4.66 9 5 C9.33 8.3 9.66 11.6 10 15 C6.74305277 11.97569186 4.27649087 8.82125253 2 5 C2 4.01 2 3.02 2 2 C1.34 2 0.68 2 0 2 C0 1.34 0 0.68 0 0 Z " fill="#9C1B09" transform="translate(210,431)"/>
<path d="M0 0 C-2.31 3.96 -4.62 7.92 -7 12 C-8 9 -8 9 -7 6 C-7.66 5.67 -8.32 5.34 -9 5 C-5.34782609 -1.7826087 -5.34782609 -1.7826087 0 0 Z " fill="#AB1D0A" transform="translate(320,382)"/>
<path d="M0 0 C1.5625 1.4375 1.5625 1.4375 3 4 C2.96846324 7.05380927 2.53266629 9.99653222 2 13 C-0.86453858 9.58983503 -2.34703566 6.09305456 -4 2 C-2.68 1.34 -1.36 0.68 0 0 Z " fill="#C02916" transform="translate(309,131)"/>
<path d="M0 0 C0.75 1.75 0.75 1.75 1 4 C-0.8125 6.25 -0.8125 6.25 -3 8 C-3.66 8 -4.32 8 -5 8 C-5.103125 8.53625 -5.20625 9.0725 -5.3125 9.625 C-6.18092697 12.62502044 -7.55620296 15.2379535 -9 18 C-9.66 18 -10.32 18 -11 18 C-9.68493198 13.35250831 -7.83857485 10.0362944 -4.9375 6.1875 C-4.22464844 5.23230469 -3.51179687 4.27710937 -2.77734375 3.29296875 C-1 1 -1 1 0 0 Z " fill="#FEE9E2" transform="translate(203,122)"/>
<path d="M0 0 C2.475 0.99 2.475 0.99 5 2 C5 3.32 5 4.64 5 6 C4.34 6 3.68 6 3 6 C3 7.98 3 9.96 3 12 C2.01 12 1.02 12 0 12 C0 8.04 0 4.08 0 0 Z " fill="#CA1A04" transform="translate(186,132)"/>
<path d="M0 0 C0.86044922 0.19916016 0.86044922 0.19916016 1.73828125 0.40234375 C11.08836519 2.34613965 20.48576222 2.62534608 30 3 C30 3.33 30 3.66 30 4 C26.52090629 4.05883728 23.04194326 4.09387399 19.5625 4.125 C18.58861328 4.14175781 17.61472656 4.15851563 16.61132812 4.17578125 C10.41151925 4.21725154 4.99995705 3.57599699 -1 2 C-0.67 1.34 -0.34 0.68 0 0 Z " fill="#F82609" transform="translate(226,241)"/>
<path d="M0 0 C3.68006822 3.38168431 5.9785845 6.42521756 8 11 C5.6875 11.25 5.6875 11.25 3 11 C1.1875 9.4375 1.1875 9.4375 0 7 C-0.1875 3.25 -0.1875 3.25 0 0 Z " fill="#C91F05" transform="translate(221,439)"/>
<path d="M0 0 C0.99 0.33 1.98 0.66 3 1 C3 2.32 3 3.64 3 5 C3.99 5.33 4.98 5.66 6 6 C6.55665831 7.9646764 7.10168045 9.93560906 7.5234375 11.93359375 C7.97686574 14.17019768 7.97686574 14.17019768 9.1875 16.8125 C10 19 10 19 9 22 C7.49394598 18.71106997 5.99619468 15.41842554 4.5 12.125 C4.07074219 11.18785156 3.64148438 10.25070312 3.19921875 9.28515625 C2.79316406 8.38925781 2.38710937 7.49335938 1.96875 6.5703125 C1.59169922 5.74289551 1.21464844 4.91547852 0.82617188 4.06298828 C0 2 0 2 0 0 Z " fill="#991F10" transform="translate(112,251)"/>
<path d="M0 0 C2.97 0.33 5.94 0.66 9 1 C9.33 2.32 9.66 3.64 10 5 C8.5625 6.75 8.5625 6.75 7 8 C5.83035398 6.8572081 4.66435444 5.71068285 3.5 4.5625 C2.8503125 3.92441406 2.200625 3.28632812 1.53125 2.62890625 C0 1 0 1 0 0 Z " fill="#C71F04" transform="translate(353,58)"/>
<path d="M0 0 C0.66 1.32 1.32 2.64 2 4 C1.34 4 0.68 4 0 4 C0.33 5.65 0.66 7.3 1 9 C0.34 9 -0.32 9 -1 9 C-1 9.66 -1 10.32 -1 11 C-1.66 11 -2.32 11 -3 11 C-4.22080679 5.62845011 -4.22080679 5.62845011 -3.1875 2.6875 C-2 1 -2 1 0 0 Z " fill="#C72006" transform="translate(385,247)"/>
<path d="M0 0 C0.99 0 1.98 0 3 0 C3 0.66 3 1.32 3 2 C3.99 2.33 4.98 2.66 6 3 C6.33 3.66 6.66 4.32 7 5 C7.99 5 8.98 5 10 5 C10.20625 5.598125 10.4125 6.19625 10.625 6.8125 C12.50926082 9.81018767 14.81132084 10.61361776 18 12 C18 12.66 18 13.32 18 14 C10.67512849 11.37751514 4.44967947 6.38432272 0 0 Z " fill="#FEE6DE" transform="translate(202,209)"/>
<path d="M0 0 C3.16466012 1.58233006 3.86506325 4.75716087 5.1875 7.875 C5.47302734 8.51308594 5.75855469 9.15117188 6.05273438 9.80859375 C8.12240415 14.63278754 8.12240415 14.63278754 7 18 C3.1110686 12.15175965 0 7.23424025 0 0 Z " fill="#78170B" transform="translate(392,100)"/>
<path d="M0 0 C0.33 0.66 0.66 1.32 1 2 C0.01 3.485 0.01 3.485 -1 5 C-1.66 5 -2.32 5 -3 5 C-3.04125 5.721875 -3.0825 6.44375 -3.125 7.1875 C-4.38352165 11.23274817 -6.63589117 12.49481257 -10 15 C-10 10.84469116 -8.2148551 9.51148232 -5.5625 6.375 C-4.73878906 5.39273438 -3.91507813 4.41046875 -3.06640625 3.3984375 C-1 1 -1 1 0 0 Z " fill="#F72508" transform="translate(137,79)"/>
<path d="M0 0 C3.86769385 1.28923128 4.74134828 2.61202242 7 6 C10.15328467 12.54014599 10.15328467 12.54014599 9 16 C5 9.25 5 9.25 5 7 C4.34 7 3.68 7 3 7 C2.01 4.69 1.02 2.38 0 0 Z " fill="#7D160B" transform="translate(200,415)"/>
<path d="M0 0 C1.5 1.375 1.5 1.375 3 3 C3 3.66 3 4.32 3 5 C3.66 5 4.32 5 5 5 C9 11.75 9 11.75 9 14 C7.125 13.8125 7.125 13.8125 5 13 C3.875 10.5 3.875 10.5 3 8 C2.34 7.67 1.68 7.34 1 7 C0.59270772 4.67843403 0.25561323 2.3431213 0 0 Z " fill="#84150D" transform="translate(378,77)"/>
<path d="M0 0 C3.24640477 0.49305465 4.54082288 1.04804859 7.375 2.9375 C5.91619891 2.79642253 4.45796449 2.64947585 3 2.5 C1.78183594 2.37818359 1.78183594 2.37818359 0.5390625 2.25390625 C-1.625 1.9375 -1.625 1.9375 -3.625 0.9375 C-3.625 2.5875 -3.625 4.2375 -3.625 5.9375 C-6.595 5.4425 -6.595 5.4425 -9.625 4.9375 C-6.66090867 1.01725018 -4.86425415 -0.49198003 0 0 Z " fill="#AB200B" transform="translate(295.625,19.0625)"/>
<path d="M0 0 C0.66 0.99 1.32 1.98 2 3 C2.99 2.67 3.98 2.34 5 2 C3.68775452 5.93673644 2.08089673 8.22719294 -1 11 C-1.33 8.03 -1.66 5.06 -2 2 C-1.34 2 -0.68 2 0 2 C0 1.34 0 0.68 0 0 Z " fill="#991A07" transform="translate(255,474)"/>
<path d="M0 0 C2 1 2 1 2.78125 3.29296875 C3.0184375 4.24816406 3.255625 5.20335937 3.5 6.1875 C4.30437259 9.35574308 5.13139111 12.36132555 6.25 15.4375 C7.06385249 18.21816266 6.80238502 19.30054753 6 22 C4.99009308 19.08666921 3.99384048 16.16884681 3 13.25 C2.71382813 12.425 2.42765625 11.6 2.1328125 10.75 C1.86210938 9.95078125 1.59140625 9.1515625 1.3125 8.328125 C1.06113281 7.5949707 0.80976562 6.86181641 0.55078125 6.10644531 C0 4 0 4 0 0 Z " fill="#941F0E" transform="translate(97,208)"/>
<path d="M0 0 C0 0.99 0 1.98 0 3 C-2.046875 4.640625 -2.046875 4.640625 -4.75 6.25 C-5.63171875 6.79140625 -6.5134375 7.3328125 -7.421875 7.890625 C-10 9 -10 9 -14 8 C-9.38 5.36 -4.76 2.72 0 0 Z " fill="#9A200D" transform="translate(177,30)"/>
<path d="M0 0 C0.66 0.33 1.32 0.66 2 1 C1.01 2.485 1.01 2.485 0 4 C-0.99 4 -1.98 4 -3 4 C-3 4.66 -3 5.32 -3 6 C-3.928125 6.12375 -3.928125 6.12375 -4.875 6.25 C-7.18437567 6.81258459 -7.18437567 6.81258459 -8.25 9.0625 C-8.4975 9.701875 -8.745 10.34125 -9 11 C-9.99 10.34 -10.98 9.68 -12 9 C-8.04 6.03 -4.08 3.06 0 0 Z " fill="#991E0E" transform="translate(161,39)"/>
<path d="M0 0 C0.33 0.66 0.66 1.32 1 2 C0.34 2 -0.32 2 -1 2 C-1.2475 2.721875 -1.495 3.44375 -1.75 4.1875 C-3.10983674 7.24713266 -4.82917754 9.4673738 -7 12 C-7.35288435 8.2064932 -7.28393415 6.44058747 -5.1875 3.1875 C-3 1 -3 1 0 0 Z " fill="#86170C" transform="translate(268,463)"/>
<path d="M0 0 C-2 4 -4 8 -6 12 C-6.66 12 -7.32 12 -8 12 C-8 11.01 -8 10.02 -8 9 C-7.34 9 -6.68 9 -6 9 C-6.0825 8.071875 -6.165 7.14375 -6.25 6.1875 C-6 3 -6 3 -4.125 1.125 C-2 0 -2 0 0 0 Z " fill="#89190B" transform="translate(281,444)"/>
<path d="M0 0 C0.66 0 1.32 0 2 0 C2 2.31 2 4.62 2 7 C2.66 7 3.32 7 4 7 C4 9.97 4 12.94 4 16 C0.78235549 11.17353323 -0.36261136 5.80178176 0 0 Z " fill="#961F11" transform="translate(93,192)"/>
<path d="M0 0 C-0.66 1.98 -1.32 3.96 -2 6 C-2.66 6 -3.32 6 -4 6 C-4.66 7.65 -5.32 9.3 -6 11 C-6.33 11 -6.66 11 -7 11 C-7.3125 8.3125 -7.3125 8.3125 -7 5 C-2.86956522 0 -2.86956522 0 0 0 Z " fill="#85190C" transform="translate(288,433)"/>
<path d="M0 0 C-0.33 2.31 -0.66 4.62 -1 7 C-2.32 6.67 -3.64 6.34 -5 6 C-5.33 4.68 -5.66 3.36 -6 2 C-3 0 -3 0 0 0 Z " fill="#9C1706" transform="translate(407,195)"/>
<path d="M0 0 C1.51460611 5.25522425 0.69386582 9.47349519 -1.5625 14.4375 C-2.036875 15.283125 -2.51125 16.12875 -3 17 C-4.56393356 13.02623171 -3.36145292 10.18622097 -2.0625 6.25 C-1.68222656 5.07953125 -1.30195312 3.9090625 -0.91015625 2.703125 C-0.60980469 1.81109375 -0.30945313 0.9190625 0 0 Z " fill="#891C0E" transform="translate(99,118)"/>
<path d="M0 0 C3 3.75 3 3.75 3 6 C3.99 5.67 4.98 5.34 6 5 C6 8.3 6 11.6 6 15 C3.75848118 12.75848118 3.03698675 10.9932888 1.875 8.0625 C1.52179688 7.18722656 1.16859375 6.31195313 0.8046875 5.41015625 C0 3 0 3 0 0 Z " fill="#9D200F" transform="translate(106,235)"/>
<path d="M0 0 C0 0.66 0 1.32 0 2 C-3.63195496 4.42130331 -5.38349348 4.21022785 -9.6875 4.125 C-10.86699219 4.10695312 -12.04648437 4.08890625 -13.26171875 4.0703125 C-14.16535156 4.04710937 -15.06898438 4.02390625 -16 4 C-16 3.67 -16 3.34 -16 3 C-15.24074219 2.86722656 -14.48148437 2.73445312 -13.69921875 2.59765625 C-12.70535156 2.42105469 -11.71148437 2.24445313 -10.6875 2.0625 C-9.70136719 1.88847656 -8.71523438 1.71445313 -7.69921875 1.53515625 C-5.05048625 1.01000957 -2.69980449 0 0 0 Z " fill="#BC3D29" transform="translate(272,227)"/>
<path d="M0 0 C1.65 0 3.3 0 5 0 C7.125 5.625 7.125 5.625 6 9 C4.02 6.03 2.04 3.06 0 0 Z " fill="#B92B18" transform="translate(297,122)"/>
<path d="M0 0 C2.64 0 5.28 0 8 0 C8 0.66 8 1.32 8 2 C9.134375 2.28875 10.26875 2.5775 11.4375 2.875 C12.613125 3.24625 13.78875 3.6175 15 4 C15.33 4.66 15.66 5.32 16 6 C10.63904723 4.41078475 5.29156027 2.81027062 0 1 C0 0.67 0 0.34 0 0 Z " fill="#B73726" transform="translate(264,103)"/>
<path d="M0 0 C0.33 0.66 0.66 1.32 1 2 C0.06553465 4.03144641 -0.93224776 6.03533587 -2 8 C-2.66 8 -3.32 8 -4 8 C-4.66 9.98 -5.32 11.96 -6 14 C-6.66 14 -7.32 14 -8 14 C-6.6744419 10.37723685 -5.05653045 7.36494652 -2.875 4.1875 C-2.33617188 3.39730469 -1.79734375 2.60710937 -1.2421875 1.79296875 C-0.83226563 1.20128906 -0.42234375 0.60960938 0 0 Z " fill="#951D12" transform="translate(118,82)"/>
<path d="M0 0 C3.53600465 1.91135386 5.78972846 3.62642766 8 7 C5.69 6.67 3.38 6.34 1 6 C0.4465236 3.92446352 0 2.15634036 0 0 Z " fill="#A11C09" transform="translate(354,52)"/>
<path d="M0 0 C0.99 0.33 1.98 0.66 3 1 C2.67 3.64 2.34 6.28 2 9 C1.67 8.01 1.34 7.02 1 6 C0.01 6 -0.98 6 -2 6 C-1.34 4.02 -0.68 2.04 0 0 Z " fill="#C92109" transform="translate(306,392)"/>
<path d="M0 0 C3.88975419 3.59054233 6.89732195 7.73898882 10 12 C6.57219815 10.33360592 3.75650472 8.68200459 1 6 C0.1875 2.75 0.1875 2.75 0 0 Z " fill="#B53222" transform="translate(195,201)"/>
<path d="M0 0 C0.66 0.33 1.32 0.66 2 1 C0.02 3.31 -1.96 5.62 -4 8 C-5.32 7.67 -6.64 7.34 -8 7 C-5.36 4.69 -2.72 2.38 0 0 Z " fill="#FEEAE1" transform="translate(212,114)"/>
<path d="M0 0 C0.99 0 1.98 0 3 0 C2.67 2.31 2.34 4.62 2 7 C1.01 6.67 0.02 6.34 -1 6 C-0.67 4.02 -0.34 2.04 0 0 Z " fill="#CA1D04" transform="translate(366,285)"/>
<path d="M0 0 C0.66 1.32 1.32 2.64 2 4 C1.54625 4.391875 1.0925 4.78375 0.625 5.1875 C-1.27642919 7.30832487 -2.06204028 9.33042235 -3 12 C-3.66 11.67 -4.32 11.34 -5 11 C-3.35 7.37 -1.7 3.74 0 0 Z " fill="#FE5028" transform="translate(376,254)"/>
<path d="M0 0 C0 0.99 0 1.98 0 3 C-5.2734375 6.22265625 -5.2734375 6.22265625 -7 7 C-7.66 6.67 -8.32 6.34 -9 6 C-3.375 1.125 -3.375 1.125 0 0 Z " fill="#BA2916" transform="translate(296,213)"/>
<path d="M0 0 C0.33 0.66 0.66 1.32 1 2 C1.99 2 2.98 2 4 2 C4 2.99 4 3.98 4 5 C2.02 5.66 0.04 6.32 -2 7 C-2.125 4.625 -2.125 4.625 -2 2 C-1.34 1.34 -0.68 0.68 0 0 Z " fill="#C1220B" transform="translate(403,190)"/>
<path d="M0 0 C0.33 0 0.66 0 1 0 C1.36504603 1.58086048 1.71660506 3.16483907 2.0625 4.75 C2.25972656 5.63171875 2.45695312 6.5134375 2.66015625 7.421875 C2.99825872 9.98679028 2.81158635 11.57091639 2 14 C-0.28062828 10.57905758 -0.21925007 9.31812778 -0.125 5.3125 C-0.10695313 4.31863281 -0.08890625 3.32476562 -0.0703125 2.30078125 C-0.04710937 1.54152344 -0.02390625 0.78226563 0 0 Z " fill="#F32405" transform="translate(394,141)"/>
<path d="M0 0 C0.33 0 0.66 0 1 0 C0.67 2.97 0.34 5.94 0 9 C-0.99 9.33 -1.98 9.66 -3 10 C-2.49287967 6.28111761 -1.88391785 3.26545761 0 0 Z " fill="#F42305" transform="translate(116,110)"/>
<path d="M0 0 C3.0916909 2.52956528 3.90931332 5.22454612 5 9 C4.01 9 3.02 9 2 9 C2 7.68 2 6.36 2 5 C1.34 5 0.68 5 0 5 C0 3.35 0 1.7 0 0 Z " fill="#84190B" transform="translate(387,91)"/>
<path d="M0 0 C0.99 0.33 1.98 0.66 3 1 C3 1.99 3 2.98 3 4 C3.66 4 4.32 4 5 4 C5.33 5.98 5.66 7.96 6 10 C3.25722422 6.80009492 1.3697164 3.99500618 0 0 Z " fill="#651207" transform="translate(194,405)"/>
<path d="M0 0 C0.66 0.66 1.32 1.32 2 2 C1.60467975 4.45098556 0.78698574 6.63904279 0 9 C-0.66 9 -1.32 9 -2 9 C-1.125 1.125 -1.125 1.125 0 0 Z " fill="#89180C" transform="translate(370,284)"/>
<path d="M0 0 C0.66 0 1.32 0 2 0 C2 2.64 2 5.28 2 8 C1.34 7.01 0.68 6.02 0 5 C-0.99 4.67 -1.98 4.34 -3 4 C-2.34 3.67 -1.68 3.34 -1 3 C-0.67 2.01 -0.34 1.02 0 0 Z " fill="#C72109" transform="translate(252,477)"/>
<path d="M0 0 C0.99 0.33 1.98 0.66 3 1 C2.34 2.98 1.68 4.96 1 7 C0.01 6.01 -0.98 5.02 -2 4 C-1.34 2.68 -0.68 1.36 0 0 Z " fill="#BF210E" transform="translate(232,457)"/>
<path d="M0 0 C0.99 0 1.98 0 3 0 C3.99 2.97 4.98 5.94 6 9 C4 7.1875 4 7.1875 2 5 C2 4.01 2 3.02 2 2 C1.34 2 0.68 2 0 2 C0 1.34 0 0.68 0 0 Z " fill="#70140B" transform="translate(210,431)"/>
<path d="M0 0 C1.875 0.5625 1.875 0.5625 4 2 C5.25 5.625 5.25 5.625 6 9 C2.91910327 6.22719294 1.31224548 3.93673644 0 0 Z " fill="#731209" transform="translate(225,454)"/>
<path d="M0 0 C1.98 0.99 1.98 0.99 4 2 C4 2.99 4 3.98 4 5 C4.66 5.33 5.32 5.66 6 6 C5.34 6.66 4.68 7.32 4 8 C0 2.25 0 2.25 0 0 Z " fill="#7F150C" transform="translate(220,446)"/>
<path d="M0 0 C0.99 0 1.98 0 3 0 C3.6875 2.3125 3.6875 2.3125 4 5 C2.5625 6.8125 2.5625 6.8125 1 8 C0.67 5.36 0.34 2.72 0 0 Z " fill="#A2190A" transform="translate(304,398)"/>
<path d="M0 0 C1.875 0.5625 1.875 0.5625 4 2 C5.25 5.625 5.25 5.625 6 9 C5.34 8.67 4.68 8.34 4 8 C4 7.01 4 6.02 4 5 C3.34 5 2.68 5 2 5 C1.34 3.35 0.68 1.7 0 0 Z " fill="#62110A" transform="translate(240,477)"/>
<path d="M0 0 C-1.1858237 3.37503669 -2.27573689 5.64722731 -5 8 C-4.74438677 5.6568787 -4.40729228 3.32156597 -4 1 C-2 0 -2 0 0 0 Z " fill="#7C180A" transform="translate(297,419)"/>
<path d="M0 0 C4.455 1.98 4.455 1.98 9 4 C9 4.33 9 4.66 9 5 C5.93606987 5.25532751 4.36766788 5.21861333 1.6875 3.625 C1.130625 3.08875 0.57375 2.5525 0 2 C0 1.34 0 0.68 0 0 Z " fill="#B7321E" transform="translate(217,222)"/>
<path d="M0 0 C4.40114397 0.50298788 6.71195019 2.08772731 10 5 C6.85047161 4.3001048 3.9347497 3.34839851 1 2 C0.67 1.34 0.34 0.68 0 0 Z " fill="#FDE5DB" transform="translate(273,107)"/>
<path d="M0 0 C2.375 0.625 2.375 0.625 5 2 C6.3125 5.125 6.3125 5.125 7 8 C6.34 8 5.68 8 5 8 C4.731875 7.195625 4.46375 6.39125 4.1875 5.5625 C3.795625 4.716875 3.40375 3.87125 3 3 C2.01 2.67 1.02 2.34 0 2 C0 1.34 0 0.68 0 0 Z " fill="#9F1F0E" transform="translate(372,72)"/>
<path d="M0 0 C3.37503669 1.1858237 5.64722731 2.27573689 8 5 C7.01 5.33 6.02 5.66 5 6 C5 5.34 5 4.68 5 4 C4.360625 3.896875 3.72125 3.79375 3.0625 3.6875 C2.381875 3.460625 1.70125 3.23375 1 3 C0.67 2.01 0.34 1.02 0 0 Z " fill="#8B1B0B" transform="translate(334,37)"/>
</svg>
